<?xml version="1.0" encoding="utf-8"?>
<!-- Generator: Adobe Illustrator 14.0.0, SVG Export Plug-In . SVG Version: 6.00 Build 43363)  -->
<!DOCTYPE svg PUBLIC "-//W3C//DTD SVG 1.1//EN" "http://www.w3.org/Graphics/SVG/1.1/DTD/svg11.dtd">
<svg version="1.1" xmlns="http://www.w3.org/2000/svg" xmlns:xlink="http://www.w3.org/1999/xlink" x="0px" y="0px" width="504px"
	 height="504px" viewBox="0 0 504 504" enable-background="new 0 0 504 504" xml:space="preserve">
<g id="Layer_2">
	<circle cx="256.59" cy="246.09" r="166.492"/>
	<circle fill="#FFFFFF" cx="273" cy="212" r="18.5"/>
	<circle fill="#FFFFFF" cx="223.5" cy="233" r="18.5"/>
	<circle fill="#FFFFFF" cx="244.5" cy="278.5" r="18.5"/>
	<circle fill="#FFFFFF" cx="292.5" cy="260.5" r="18.5"/>
</g>
<g id="Layer_3">
	<circle fill="#333333" cx="260.341" cy="245.341" r="101.245"/>
	<circle fill="#FFFFFF" cx="273" cy="212" r="18.5"/>
	<circle fill="#FFFFFF" cx="223.5" cy="233" r="18.5"/>
	<circle fill="#FFFFFF" cx="244.5" cy="278.5" r="18.5"/>
	<circle fill="#FFFFFF" cx="292.5" cy="260.5" r="18.5"/>
</g>
<g id="Layer_4">
	<path fill="#999999" d="M206.25,228.25c0,0,18.5,25.5,32-4.5c0,0,10.5,20.5-12.5,26C225.75,249.75,206.25,252.5,206.25,228.25z"/>
	<path fill="#999999" d="M256.75,220.5c0,0,27.5,9,27.25-21.25c0,0,13.25,15.25-0.25,27C283.75,226.25,271,238.25,256.75,220.5z"/>
	<path fill="#999999" d="M227.25,278c0,0,21.75,16.75,28.25-10.75c0,0,15.5,16.5-4.25,28.75C251.25,296,229.75,303.25,227.25,278z"
		/>
	<path fill="#999999" d="M275,266c0,0,28.75,8.25,26-19.75c0,0,16.5,8.25,5,25.5C306,271.75,288.75,288.25,275,266z"/>
</g>
</svg>
