<?xml version="1.0" encoding="utf-8"?>
<!-- Svg Vector Icons : http://www.onlinewebfonts.com/icon -->
<!DOCTYPE svg PUBLIC "-//W3C//DTD SVG 1.1//EN" "http://www.w3.org/Graphics/SVG/1.1/DTD/svg11.dtd">
<svg version="1.1" xmlns="http://www.w3.org/2000/svg" xmlns:xlink="http://www.w3.org/1999/xlink" x="0px" y="0px" viewBox="0 0 1000 1000" enable-background="new 0 0 1000 1000" xml:space="preserve">
<metadata> Svg Vector Icons : http://www.onlinewebfonts.com/icon </metadata>
<g><g><g><path d="M500,118.3c-210.9,0-381.7,170.9-381.7,381.7c0,210.8,170.9,381.7,381.7,381.7c210.8,0,381.7-170.9,381.7-381.7C881.7,289.1,710.8,118.3,500,118.3z M371.7,730.3c-56.4,0-102.1-45.7-102.1-102.1c0-56.4,45.7-102.1,102.1-102.1c56.4,0,102.1,45.7,102.1,102.1C473.8,684.6,428.1,730.3,371.7,730.3z M371.7,473.9c-56.4,0-102.1-45.7-102.1-102.1c0-56.4,45.7-102.1,102.1-102.1c56.4,0,102.1,45.7,102.1,102.1C473.8,428.3,428.1,473.9,371.7,473.9z M628.3,730.3c-56.4,0-102.1-45.7-102.1-102.1c0-56.4,45.7-102.1,102.1-102.1c56.4,0,102.1,45.7,102.1,102.1C730.4,684.6,684.7,730.3,628.3,730.3z M628.3,473.9c-56.4,0-102.1-45.7-102.1-102.1c0-56.4,45.7-102.1,102.1-102.1c56.4,0,102.1,45.7,102.1,102.1C730.4,428.3,684.7,473.9,628.3,473.9z"/><path d="M500,10C229.9,10,10,229.9,10,500s219.9,490,490,490s490-219.9,490-490S770.1,10,500,10z M500,934.4C260.4,934.4,65.5,739.5,65.5,500C65.5,260.4,260.4,65.5,500,65.5c239.5,0,434.4,194.9,434.4,434.5C934.4,739.5,739.5,934.4,500,934.4z"/></g></g><g></g><g></g><g></g><g></g><g></g><g></g><g></g><g></g><g></g><g></g><g></g><g></g><g></g><g></g><g></g></g>
</svg>