<?xml version="1.0" standalone="no"?>
<!DOCTYPE svg PUBLIC "-//W3C//DTD SVG 20010904//EN"
 "http://www.w3.org/TR/2001/REC-SVG-20010904/DTD/svg10.dtd">
<svg version="1.0" xmlns="http://www.w3.org/2000/svg"
 width="1280.000000pt" height="1280.000000pt" viewBox="0 0 1280.000000 1280.000000"
 preserveAspectRatio="xMidYMid meet">
<metadata>
Created by potrace 1.15, written by Peter Selinger 2001-2017
</metadata>
<g transform="translate(0.000000,1280.000000) scale(0.100000,-0.100000)"
fill="#000000" stroke="none">
<path d="M6185 12700 c-1240 -76 -2374 -489 -3340 -1217 -959 -722 -1698
-1740 -2086 -2872 -156 -455 -251 -888 -306 -1391 -26 -235 -26 -954 0 -1180
107 -946 373 -1750 835 -2525 254 -426 550 -804 917 -1170 1016 -1017 2291
-1615 3755 -1762 246 -24 834 -24 1080 0 805 81 1509 284 2205 637 949 481
1734 1182 2318 2071 872 1326 1192 2927 896 4474 -308 1610 -1249 3029 -2609
3931 -854 566 -1793 895 -2820 989 -203 19 -656 27 -845 15z m-1297 -5220
c212 -60 384 -185 500 -363 287 -439 125 -1029 -343 -1257 -150 -73 -202 -85
-385 -85 -183 0 -235 12 -385 85 -177 86 -309 218 -395 395 -64 131 -80 195
-87 340 -14 298 107 561 339 735 117 89 242 142 408 174 60 11 276 -3 348 -24z
m3782 4 c260 -66 487 -262 589 -509 50 -118 64 -196 64 -335 0 -223 -68 -411
-210 -577 -101 -118 -279 -227 -438 -269 -107 -29 -343 -27 -448 4 -282 81
-505 294 -597 570 -29 86 -34 113 -38 234 -4 117 -1 152 17 232 77 331 333
582 671 657 103 23 288 20 390 -7z"/>
</g>
</svg>
