<svg id="Layer_1" enable-background="new 0 0 504.501 504.501" height="512" viewBox="0 0 504.501 504.501" width="512" xmlns="http://www.w3.org/2000/svg"><g><path d="m332.335 275.965s-61.878-57.794-81.151-57.794-10.629 29.636-10.629 29.636l30.945 37.693z" fill="#ffcb99"/><g><path d="m419.5 421c8.785.169 18.207 1.31 26.746 3.384 5.524 1.342 10.58 3.364 16.39 2.062 5.037-1.129 9.289-4.235 12.002-8.626 4.434-7.174 3.708-15.524 4.067-23.577.229-5.134.529-10.285 1.152-15.388.228-1.867.508-3.733.937-5.566.165-.705.476-1.436.573-2.145.309-.862.272-.807-.112.164.983-1.618-.097-.909-3.24 2.127 3.731-1.53 6.424-4.99 5.238-9.226-.991-3.539-5.443-6.79-9.226-5.238-8.663 3.553-8.758 15.163-9.512 23.152-.473 5.009-.754 10.038-.928 15.066-.063 1.818-.097 3.637-.132 5.456-.024 1.271-.152 3.198-.144 3.151-.529 2.79-1.31 5.361-3.691 5.97-3.583.917-7.873-1.578-11.465-2.277-9.305-1.811-19.159-3.307-28.656-3.49-9.655-.185-9.655 14.815.001 15.001z" fill="#ffe4c9"/></g><path d="m358.821 42.165c-8.698-.478-16.85-4.173-23.131-10.206-72.616-69.734-307.672-33.096-307.672 187.226 0 288.199 352.137 240.886 352.137 240.886 32.665-11.405 52.801-40.462 52.801-40.462s10.259-70.595-59.841-120.506c-64.241-45.74-127.835-47.269-186.944-63.872-69.094-19.408-89.379-126.123.382-177.141 50.134-28.494 103.001-14.37 125.759-5.809 10.124 3.808 18.289 11.488 22.763 21.331 12.711 27.965 21.189 77.388 40.681 79.476 24.64 2.639 18.504-53.398 25.52-57.174 11.44-6.157 53.681-16.713 58.961-33.425 4.13-13.072-69.247-18.555-101.416-20.324z" fill="#ffe4c9"/><g><path d="m306.626 504.501c-2.501 0-4.945-1.25-6.368-3.527-2.194-3.513-1.126-8.14 2.387-10.334 17.497-10.932 35.902-7.1 49.342-4.301 6.958 1.45 13.533 2.817 17.031 1.569 3.956-1.412 4.831-15.314 5.353-23.621.596-9.477 1.159-18.428 4.61-24.495 2.047-3.601 6.625-4.861 10.227-2.812 3.601 2.048 4.859 6.627 2.812 10.228-1.737 3.054-2.237 11.005-2.679 18.021-.945 15.033-2.017 32.072-15.28 36.807-7.469 2.669-16.049.88-25.132-1.011-12.756-2.656-25.946-5.403-38.336 2.336-1.236.772-2.61 1.14-3.967 1.14z" fill="#ffe4c9"/></g><path d="m273.674 346.602c-64.81 8.637-64.416 78.099-62.133 103.061 85.481 21.574 168.615 10.408 168.615 10.408 32.665-11.405 52.801-40.462 52.801-40.462s10.259-70.595-59.841-120.506c-10.39-7.398-20.763-13.633-31.103-18.969 1.008 12.219-.005 57.361-68.339 66.468z" fill="#ffcb99"/><g><path d="m101.054 399.663s-147.087 67.933-42.604 79.086c104.482 11.153 149.115-27.376 149.115-27.376l-30.065-65.873z" fill="#ffe4c9"/><g><path d="m365.365 42.545c29.234 4.547 57.49 11.657 54.872 19.944-5.28 16.713-47.521 27.268-58.961 33.425-3.612 1.944-3.739 17.74-6.373 32.25 5.663 13.652 12.163 23.994 20.853 24.924 24.64 2.639 18.504-53.398 25.52-57.174 11.44-6.157 53.681-16.713 58.961-33.425 3.869-12.248-60.306-17.834-94.872-19.944z" fill="#ffcb99"/></g><g><path d="m326.475 413.036c9.652 0 9.668-15 0-15-9.652 0-9.668 15 0 15z" fill="#7a7b97"/></g><path d="" style="fill:none;stroke:#000;stroke-width:15;stroke-linecap:round;stroke-linejoin:round;stroke-miterlimit:10"/><g><g><path d="m227.853 287.118c-41.888-12.658-97.381 27.376-129.842 14.195s-10.144-83.142-34.489-100.378c-17.438-12.346-29.576 17.433-35.062 35.328 6.898 135.704 96.194 191.473 183.081 213.401-2.283-24.962-2.676-94.424 62.133-103.061 9.63-1.283 17.922-3.283 25.061-5.805-9.651-12.419-36.367-43.25-70.882-53.68z" fill="#f0718f"/></g><path d="m124.385 66.082c-19.273 15.209-14.564 35.076-19.273 64.891-1.911 12.101-20.993 37.405-7.101 62.863 12.173 22.306 48.691 16.223 48.691 16.223l.315-.319c-30.972-37.081-29.943-101.84 25.291-142.42l-.246-1.238s-30.215-13.779-47.677 0z" fill="#f0718f"/></g></g></g></svg>