<?xml version="1.0" encoding="utf-8"?>
<!-- Generator: Adobe Illustrator 23.0.1, SVG Export Plug-In . SVG Version: 6.00 Build 0)  -->
<svg version="1.1" id="Layer_1" xmlns="http://www.w3.org/2000/svg" xmlns:xlink="http://www.w3.org/1999/xlink" x="0px" y="0px"
	 viewBox="0 0 1920 1080" style="enable-background:new 0 0 1920 1080;" xml:space="preserve">
<style type="text/css">
	.st0{fill:#FFFFFF;}
	.st1{fill:#EBEBEB;}
	.st2{opacity:0.7;fill-opacity:0.1;}
	.st3{fill-opacity:0.1;}
	.st4{fill:#FCFCFC;}
	.st5{opacity:0.7;fill:#FFFFFF;}
	.st6{opacity:0.3;}
	.st7{opacity:0.3;fill:#FFFFFF;}
	.st8{fill:#C2C76B;}
	.st9{fill:#403D40;}
	.st10{fill:#FFAB40;}
</style>
<g>
	<g>
		<g>
			<path d="M1074.5,326.3c-8,1.1-15.8,2.1-23.6,3c-0.8,0.1-2.3-1.3-2.5-2.2c-5.1-26.3-28.6-49.9-64-53.1
				c-16.5-1.5-32.8-0.9-48.6,4.9c-9.5,3.5-17.9,8.6-23.4,17.4c-10.8,17.3-3,39.3,17,48.3c11.1,5,22.9,6.5,34.8,7.6
				c19.8,1.9,39.9,2.4,59.3,7.3c13.4,3.4,26.2,8.2,36.6,17.7c19.8,18.2,20.8,50.7,2.5,71c-9.9,11-22.2,18.4-36.1,22.7
				c-36.9,11.3-73.9,10.9-110.3-2.3c-22.3-8.1-40.3-21.8-50.6-43.9c-2.6-5.5-4.3-11.4-6.6-17.6c9.1-1.7,17.3-3.2,25.9-4.8
				c2.8,10.2,6.8,19.3,13.2,27.3c11.6,14.4,27,22.5,44.7,26.3c24.6,5.3,49,5.5,73.1-2.8c8.8-3,16.8-7.7,23-14.9
				c14.3-16.5,9-41.1-10.9-50.2c-14.4-6.6-29.9-8.3-45.5-9.9c-16.5-1.6-33-3-49.3-5.9c-16.2-2.9-30.7-9.8-41.5-22.9
				c-18.4-22.3-14.8-55.5,7.8-73.3c15.5-12.3,33.5-18.3,52.7-20.6c23.5-2.9,46.6-1,69,7C1049.4,272.5,1070,297,1074.5,326.3"/>
			<path d="M836,471h-28.3c-2.6-21.6-5.3-43.2-7.9-64.8c-0.3,0-0.6,0-0.8-0.1c-0.3,1.3-0.6,2.7-0.9,4c-4.1,20.5-12.6,38.4-30.2,50.8
				c-10.7,7.5-22.8,11.5-35.5,13.2c-16.8,2.2-33.6,1.7-50.1-2.9c-28.6-7.9-45.6-27-52.7-55.4c-3.5-13.9-4.9-28.1-4.9-42.4
				c-0.1-36.4,0-72.8,0-109.2c0-0.7,0.1-1.3,0.1-2.3h28.6c0,1.4,0,3,0,4.5c0.1,37.1,0.1,74.2,0.4,111.2c0.1,14,2.3,27.8,7.6,41
				c7.3,18.1,20.9,28.6,39.6,33c17.2,4,34.5,3.9,51.5-1c22.6-6.5,35.6-22.2,41.8-44.3c3.6-13.1,4.4-26.5,4.4-39.9
				c0-33.1,0-66.3,0-99.4V262h28.9v4.6c0,38.2,0.4,76.3-0.1,114.5c-0.3,19.7,2.2,39,4.7,58.4C833.3,449.8,834.6,460.2,836,471"/>
			<path d="M1137.2,281.7h-42v-20.3c5,0,9.8,0.3,14.6-0.1c19.3-1.6,30.6-12.7,35.3-30.8c1.8-6.8,2.4-13.8,3.5-20.8
				c0.2-1.6,0.2-3.2,0.3-5h29.6c-0.8,18.1-2.2,35.9-17,48.7c-4.4,3.8-10.4,5.7-15.3,8.3h101.4v19.9h-4.9c-24.2,0-48.3,0-72.5,0
				c-2.4,0-4.4-0.2-4.4,3.4c0.2,38.6,0.1,77.1,0.5,115.7c0.1,7,1.3,14.1,3.2,20.8c5.4,18.8,18.9,28.2,37.9,30.9
				c12.8,1.8,25.1-0.1,37.5-2.8c1.3-0.3,2.6-0.5,4.4-0.9c0.3,6.9,0.6,13.6,1,21c-7.5,1.4-14.9,3.2-22.3,4.2
				c-15.3,2.2-30.6,2.2-45.5-2.5c-24-7.6-38.1-24.2-42.7-48.7c-1.7-8.9-2.4-18.1-2.5-27.1c-0.3-36.3-0.1-72.5-0.1-108.8V281.7z"/>
			<path d="M461.9,525.1c5.9,1.2,11.9,2.9,18.1,3.4c8.5,0.7,17.1,1.4,25.5,0.5c19.9-2.2,32.9-14.6,36.7-34.3
				c1.1-5.6,1.6-11.3,1.6-17c0.1-70.2,0.1-140.4,0.1-210.6V262h28.7v4.3c0,71,0,142.1,0,213.1c0,15.2-2.7,29.7-10.9,42.8
				c-10,15.9-24.6,25.3-42.9,28.9c-18.2,3.6-36.2,1.9-54-2.8c-1.1-0.3-2.7-1.7-2.7-2.7C461.8,538.8,461.9,532,461.9,525.1"/>
		</g>
		<g>
			<path d="M729.1,780.3c6.9-0.7,13.8-1,20.6-2.2c27.2-4.7,49.2-17.6,63.2-42.1c11.5-20.1,14.1-41.9,10.8-64.6
				c-3.9-27.1-17-48.5-40.7-62.5c-28.3-16.6-58.6-17.8-89.3-8.4c-24.3,7.4-42.3,23.1-52.4,46.7c-8.8,20.6-9.9,42.1-5.2,63.9
				c4.8,22.4,16.6,40.2,35.7,52.9C689.2,775.5,708.6,779.7,729.1,780.3 M606.2,582.7h29c-0.7,17.3-1.3,34.5-2,51.7
				c0.3,0.1,0.5,0.1,0.8,0.2c0.3-0.5,0.8-0.9,1-1.5c7.9-21.4,23.7-35.2,43.4-45.4c43.8-22.6,104.9-14.9,141.5,18.2
				c21.8,19.7,33,44.8,34.7,74c1.7,30.7-6.4,58.4-27.1,81.6c-16.8,18.8-38.2,29.8-62.5,35.1c-27.6,6-54.8,4.4-81-6.8
				c-21.2-9-38.2-22.6-46.9-44.9c-0.2-0.6-0.6-1-1.6-1.4v131.7h-29.2V582.7z"/>
			<path d="M1573.2,666.3c0-1.3,0-2.4,0-3.4c-1.3-28.1-15.8-47.4-40.7-59c-24.6-11.4-50.6-12.8-76.9-7
				c-23.5,5.3-42.3,17.8-55.2,38.6c-5.8,9.4-9.7,19.6-11.3,30.8H1573.2z M1577.7,716.5c8.9,1.2,17.4,2.3,26.3,3.4
				c-1.1,10.9-4.6,20.7-10,29.7c-11.4,19.1-28.3,31.8-48.7,39.5c-38.4,14.5-77.4,16-116.2,1.4c-45.3-17-71.6-57-71-105.4
				c0.7-55.2,38.6-94.1,85.2-105.8c36.4-9.2,72.4-7.3,106.3,9.8c32.2,16.3,49.3,43.1,51.8,79.1c0.3,3.7,0.3,7.3,0.3,11
				c0,1.5-0.4,2.9-0.7,4.8h-213.2c-0.6,15.2,1.5,29.4,7.5,42.9c11.7,26.3,31.9,42.5,59.7,49c31.3,7.3,61.9,5.3,90.1-11.6
				c16.5-9.9,27-24.8,31.6-43.7C1576.9,719.2,1577.3,718,1577.7,716.5"/>
			<path d="M1145,496h28.9v190.7c2.1-1.1,3.6-1.7,4.8-2.6c46.6-33.1,93.1-66.3,139.7-99.4c1.7-1.2,4.2-2,6.3-2
				c10.7-0.2,21.5-0.1,32.2-0.1h3.5c0.1,0.3,0.1,0.6,0.2,0.8c-37.8,27.2-75.7,54.5-114,82.1c40.3,42,80.5,83.9,121.4,126.5
				c-6.4,0-11.9,0-17.4,0c-6.4,0-13.5,1.7-18.9-0.6c-5.4-2.3-9.1-8.6-13.5-13.2c-30.8-32.6-61.6-65.1-92.4-97.7
				c-1.3-1.4-2.6-2.8-4.1-4.4c-1.9,1.3-3.7,2.4-5.5,3.6c-13,8.7-25.9,17.5-38.9,26.1c-2.4,1.6-3.3,3.4-3.3,6.3
				c0.1,24.9,0.1,49.7,0.1,74.6v5.1H1145V496z"/>
			<path d="M994.5,779.8c12.4,0.1,24.7-1.1,36.6-4.9c25.4-8.1,44.3-23.7,54.7-48.6c7.2-17.3,8.7-35.4,6.2-54
				c-4.4-32.7-21.4-56.3-51.7-69.3c-27.4-11.8-55.7-11.7-83.4-1.4c-24.7,9.1-42,26.5-50.7,51.7c-5.7,16.6-6.8,33.8-4.1,51
				c3.8,24.8,15.4,45,36.5,59.1C955.4,774.8,974.3,779.4,994.5,779.8 M996.6,800.3c-26.9-0.1-52.3-5.8-75.2-20.4
				c-29.8-19-46.5-46.4-49.8-81.7c-3-32.4,5.7-61.1,27.9-85.1c17.9-19.4,40.4-30.9,66.2-35.8c35.1-6.7,68.9-3.4,100.7,14.1
				c38.6,21.4,59.7,62.5,55.9,105.7c-4.2,47.4-35.8,84.8-85.1,98C1024,798.8,1010.4,800.3,996.6,800.3"/>
			<path d="M1766.6,611.1c-6.6-1.3-12.7-3-19-3.7c-14.5-1.6-28.9-0.7-42.5,4.8c-19.1,7.7-29.9,22.8-35.4,42
				c-5.1,17.6-6.6,35.7-6.6,54c0,26.2,0,52.4,0,78.6v4.8h-29V582.9h28.9c-1,23-1.9,45.9-2.8,68.7c0.4,0.1,0.9,0.2,1.3,0.2
				c0.3-1.1,0.7-2.3,1-3.5c3.9-17.2,10.7-33,22.8-46.2c15-16.4,34.3-22.3,55.8-22c7.6,0.1,15.3,2,22.9,3.3c1,0.2,2.5,1.8,2.6,2.7
				C1766.7,594.5,1766.6,602.8,1766.6,611.1"/>
		</g>
	</g>
	<path class="st0" d="M198.2,694.5c11.9,15.5,32.5,35.9,49.3,45.5c13.3,7.6,41.4,10.4,59.9,10.4c-4.9-0.8-9.9-1.7-14.8-2.5
		c0-0.1,0-0.2,0.1-0.3c-13.2-0.8-25.3-5.8-37.7-9.9c-5-1.7-15.7-3.7-19.2-8.1c-5.4-6.6,2.2-7.2,6.9-5c1.9,0.9,3.4,2.2,4.8,3.6
		c4.2,4.3,7.2,9.7,15.1,9.4c15.6-0.6,18.5-2.8,30.2,9.9c0.3-0.4,1.2-0.4,1.8-0.2c0.8,0.3,1.9,0.4,2.1-0.4c0.1-0.5-0.3-0.9-0.7-1.3
		c-4.6-3.7-9.3-7.4-13.9-11.1c-0.3-0.3-0.7-0.5-1.1-0.5c-0.8,0-1.2,0.5-2.1,0.4c-0.2-2,1.7-0.9,2.8-2c2.4-1.5,4.8-2.8,7.2-4.3
		c0.2-0.1,0.4-0.3,0.7-0.2c0.2,0,0.3,0.2,0.5,0.3c-5.7-6.5-13.7-15.5-20.6-24.7c0.3,1.6,0.5,3.2,0.6,4.9c0.1,1.6-0.8,3.5-2.4,3.6
		c-0.6,0.1-1.3-0.2-1.9-0.5c-18.4-8.5-23.6-33.4-26.7-51.3c-4.1-24.1-0.4-50.2,5.9-73.6c-2.4,1.5-4.7,3-7.1,4.5
		c2.9-2.7,5.7-5.5,8.5-8.2c-3.1,2.3-6.3,4.6-8.5,7.8c-4.6,6.4-0.1,11.7-0.8,18.6c-0.8,7.5-5,14.5-10.3,19.8
		c-2.6,2.5-5.6,4.8-9.2,5.7c-4.8,1.1-10-0.7-13.8-3.9c-3.8-3.2-6.4-7.5-8.7-11.9c-3-6-5.5-12.7-4.3-19.3c0.5-3.1,1.9-2.3,4.2-3.3
		c2.9-1.2,5.1-2.9,6.7-5.5c2-3.2,2.9-6.8,3.9-10.4c2.4-8.7,5.4-17.3,9.8-25.1c3.4-6,8.3-11.8,15.1-13c7.2-1.3,14.2,3.3,19.8,8
		c0.6,0.5,1.2,1,1.8,1.6c0.2,0.2,0.3,0.3,0.5,0.5c1.3-0.2,2.8,0.6,3.2,1.9c7.3-9.6,10.4-22.2,8.3-34.1c-0.2-1-0.4-2-0.6-3
		c0.2,1,0.5,2,0.6,3c0.7,3.4,1.4,6.7,2.1,10.1c0.1,0.6,0.3,1.3,0.6,1.9c0-0.1-0.1-0.2-0.1-0.4c-1.1-5.3-1.4-10.8-3-15.9
		c-1.2-3.7-3.3-7.3-6.3-9.6c-1.2-0.9-2.5-1.6-3.9-2c0,0-0.1,0-0.1,0c-0.5-0.1-1-0.3-1.4-0.3c-0.3,0-0.5-0.1-0.7-0.1
		c-0.7-0.1-1.3-0.1-2-0.1c-1.3,0.1-2.6,0.3-3.8,0.6c-1.8,0.5-3.6,1.3-5.2,2.2c-0.6,0.3-1.1,0.6-1.6,0.9c-4.3,2.5-8.2,5.7-11.9,9
		c-2.5,2.2-4.9,4.5-7.3,6.8c-2.6,2.5-5.3,5-8.5,6.5c-3.2,1.5-7.2,2-10.4,0.3c-2.1-1.1-3.7-3-4.9-5.1c-6.3-10.3-9.2-25.3-5.1-36.9
		c0.4-1.1,0.9-2.3,2-2.6c1.8-0.6,3,1.2,4.7,1.4c2.5,0.3,4.3-0.8,6.1-2.6c6.6-6.9,8-18.9,8.3-28c0.2-6.4-1.9-12.6-2-18.8
		c0-0.8,0-1.7,0.2-2.5c0,0.1-0.1,0.1-0.2,0.1c-0.5-0.6-0.5-1.1,0.2-1.4c0.1,0.1,0.1,0.1,0.1,0.2c0.9-4.8,3.7-9.4,6.9-12.8
		c4.4-4.7,10.1-7.9,16.2-9.7c5.5-1.7,11.7-2.2,16.7,0.7c3.8,2.2,6.4,6,7.9,10.1c1.7,4.6,1.3,9.5,3.3,14.1c2.3,5.2,5.9,9.7,9.6,14
		c4.2,4.9,8.6,9.8,11.3,15.7c0.4,1,0.8,2,1.1,3.1c1.5,5.2,1.1,10.7,0.8,16.1c-0.3,6.3-1,12.6-2.1,18.8c-0.4,2.3-0.8,4.6-1.3,6.9
		c-1.6,7.5-3.8,14.9-7.9,21.3c-0.2,0.2-0.3,0.5-0.6,0.8c4.3-4.3,8.3-18.5,10-25.3c0.4-1.6,0.7-2.8,0.8-3.4c0.8-3.7,1.5-7.6,2-11.4
		c-0.1,0.2-0.2,0.3-0.3,0.5c0.6-7.2,1.2-14.5,0-21.6c1.3,6.9,1.2,14.1,0.3,21.1c14.8-27.9,29.8-55.7,44.1-83.8
		c13.2-25.9,28-53.6,34.7-82c0.2-1,0.5-2.1,0.7-3.1c0.1-0.4,0.1-0.7,0.2-1c0.1-0.3,0.1-0.6,0.2-0.9c0.1-0.3,0.1-0.6,0.2-0.9
		c2-11,1.7-22.4-7.5-30.5c-0.5-0.4-0.9-0.8-1.4-1.2c-3.9-2.3-8.6-3.7-13.3-5.7c0.7-0.1,1.4-0.2,2.1-0.3c0.2,0,0.3,0,0.5,0
		c-21-7.8-48.6,1-66.7,10.6c-23.3,12.3-43.9,30.4-60.5,50.7c-64.2,78.7-79,183.6-50,279.4C175.7,650.6,180.8,671.9,198.2,694.5z
		 M250.3,503.6C250.4,503.6,250.4,503.6,250.3,503.6L250.3,503.6C250.4,503.6,250.4,503.6,250.3,503.6z"/>
	<path class="st0" d="M290.6,304.8c2.5,0.4,5,0.1,7.4-0.4c3.4-0.7,6.8-1.7,10.1-2.7c3.6-1.2,7.2-2.7,10.4-4.8c0.3-0.2,0.7-0.5,1-0.7
		c0.9-0.6,1.3-1.4,1-2.4c-0.3-1-1.3-1-2.1-1.2c-0.3-0.1-0.7,0-1,0c-2,0-3.9,0.4-5.8,0.7c-5.4,0.8-10.4,2.6-15.4,4.6
		c-2.3,0.9-4.6,1.9-6.5,3.6c-0.6,0.5-1.1,1.2-1,1.9C288.9,304.3,289.7,304.6,290.6,304.8z"/>
	<path class="st0" d="M215.9,394.9c1.7,1.2,3.6,1.9,5.7,2c4.1,0.2,7.6-2.5,6.4-7.2c-0.2-1-0.9-1.6-1.4-2.4c-0.9-2.1-2.9-2.9-4.6-4
		c-2.4-1.4-5-2.3-7.8-2.4c-3.7-0.1-5.9,2.8-4.9,6.3C210.5,390.8,213.1,393,215.9,394.9z"/>
	<path class="st0" d="M284.1,492.8c0.1-0.2,0.2-0.3,0.3-0.5c0.9-7,1-14.3-0.3-21.1C285.3,478.3,284.7,485.6,284.1,492.8z"/>
	<path class="st0" d="M209.3,434.6c0.1-0.1,0.1-0.1,0.2-0.1c0.4-0.3,0.4-0.7,0.2-1.1c0-0.1-0.1-0.1-0.1-0.2
		C208.9,433.6,208.8,434.1,209.3,434.6z"/>
	<path class="st0" d="M264,519.7c-0.2-1-0.4-2-0.6-3C263.5,517.7,263.8,518.7,264,519.7z"/>
	<path class="st0" d="M251,503.4c0.2,0,0.5,0.1,0.7,0.1C251.5,503.3,251.3,503.3,251,503.4z"/>
	<path class="st0" d="M250.3,503.6C250.4,503.6,250.4,503.6,250.3,503.6L250.3,503.6C250.4,503.6,250.4,503.6,250.3,503.6z"/>
	<path class="st0" d="M158.5,560.1c0.3-0.1,0.6-0.3,0.9-0.5c3.5-3,6.5-6.6,8.8-10.6c2.6-4.5,1.3-8.2-1.2-10.3
		c-3.6-3.1-9.8-3-10.1,2.5c-0.4,5.5-0.4,11.1,0,16.6C156.8,558.8,157.4,560.3,158.5,560.1z"/>
	<path class="st0" d="M235.7,729.6c3.5,4.3,14.2,6.4,19.2,8.1c12.4,4.1,24.5,9.1,37.7,9.9c0.1,0,0.1,0,0.2,0c0,0-0.1-0.1-0.1-0.1
		c-11.7-12.7-14.6-10.5-30.2-9.9c-7.9,0.3-10.8-5.2-15.1-9.4c-1.4-1.4-2.9-2.7-4.8-3.6C237.9,722.4,230.3,723,235.7,729.6z"/>
	<path class="st0" d="M202.9,697c8.1,11.3,18.2,21.5,30.3,28.3c2.1-0.6,1.5-4.1,3.2-5.5c1.4-1.1,3.4-0.3,4.9,0.6
		c5.5,3.7,9.2,9.8,15.1,12.6c4.8,2.3,10.4,2.2,15.5,0.6c5-1.6,9.5-4.6,13.6-8c0.2-0.1-10-14.1-10.9-15.4c-0.5-0.7-1.1-1.4-1.9-1.3
		c-1.1,0.1-1.4,1.6-1.8,2.6c-1.2,3.1-5.1,3-7.5,1.5c-4.1-2.7-7.9-5.8-11.5-9.2c-9.9-9.2-18.3-20.4-28.3-29.3
		c-10.3-9.1-25.4-20.1-40-16.8c-0.6,0.2-1.4,0.4-1.6,1c-0.2,0.6,0,1.2,0.3,1.7C188.4,673.1,194.7,685.6,202.9,697z"/>
	<path class="st1" d="M284.1,492.8c0.1-0.2,0.2-0.3,0.3-0.5c0.9-7,1-14.3-0.3-21.1C285.3,478.3,284.7,485.6,284.1,492.8z M264,519.7
		c-0.2-1-0.4-2-0.6-3C263.5,517.7,263.8,518.7,264,519.7z"/>
	<path class="st2" d="M265.7,711.3c0.6,0.3,1.2,0.5,1.9,0.5c1.6-0.1,2.4-2,2.4-3.6c-0.1-1.7-0.3-3.3-0.6-4.9
		c-1.6-8-5.8-15.2-8.5-22.9c-0.4-1.1-0.7-2.2-1-3.2c-3-10.6-4.5-21.5-4.8-32.4c-0.6-21.8,3.8-43.6,10.8-64.2
		c2-5.9,4.1-11.8,6.3-17.7c4.4-11.8,9.1-23.4,14.2-34.8c4.7-10.6,9.7-21.1,15-31.4c2.6-5.2,5.3-10.3,8.1-15.4
		c2.6-4.7,3.5-10,8.5-5.1c4.6,4.5,8.3,9.9,11.7,15.3c6.2,9.8,10.9,20.3,17.4,29.9c17.2-25.9,15.2-62-1.7-88.1c-2-3-4.2-6.2-4.2-9.9
		c0-2.6,1.3-5.1,2.5-7.4c10.1-19.4,20.6-38.7,28.5-59.2c7.7-20.1,21.6-55.4-3.9-69.1c-6.6-3.6-15.7-5.2-23.5-4.5c-0.2,0-0.4,0-0.5,0
		c-0.7,0.1-1.4,0.2-2.1,0.3c4.8,2,9.4,3.4,13.3,5.7c3.8,2.2,6.8,5.3,8.5,10.7c2.1,6.7,1.7,13.9,0.4,20.9c-0.1,0.3-0.1,0.6-0.2,0.9
		c-0.1,0.3-0.1,0.6-0.2,0.9c-0.1,0.3-0.1,0.7-0.2,1c-0.2,1-0.5,2.1-0.7,3.1c-6.7,28.4-21.6,56.1-34.7,82
		c-14.3,28.1-29.4,55.9-44.1,83.8c-0.5,3.9-1.2,7.7-2,11.4c-0.1,0.6-0.4,1.8-0.8,3.4c-1.7,6.8-5.7,21-10,25.3
		c-0.7,0.9-1.7,1.6-2.6,1.7c-0.3,0-0.7-0.1-1-0.3c-0.7-0.4-1-1.2-1.2-2.1c-0.3-0.6-0.4-1.3-0.6-1.9c-0.7-3.4-1.4-6.7-2.1-10.1
		c2.1,11.9-1,24.5-8.3,34.1c-0.4-1.3-1.9-2.2-3.2-1.9c0.7,0.6,1.3,1.2,1.9,1.9c1.6,1.5,2.9,3.4,3.7,5.5c0.8,2.2,1.1,4.7,0.6,7
		c-0.2,1.2-0.6,2.3-1.1,3.4c0,0,0,0,0,0c-0.3,0.8-0.7,1.6-1.1,2.4c-1.2,2.3-2.9,4.3-4.7,6.1c-1.2,1.2-2.5,2.3-3.8,3.3
		c-0.5,0.4-1,0.8-1.6,1.2c-2.8,2.7-5.7,5.5-8.5,8.2c2.4-1.5,4.7-3,7.1-4.5c-6.4,23.4-10.1,49.5-5.9,73.6
		C242.1,677.9,247.3,702.8,265.7,711.3z M357.3,367.4c-0.2-2.3,0.3-4.4,0.9-6.6c0.8-3.1,1.8-6,3-8.9c0.4-0.9,0.7-1.7,1.1-2.6
		c0.2-0.4,0.4-0.9,0.6-1.3c0.2-0.4,0.4-0.9,0.6-1.3c0.1-0.3,0.3-0.6,0.5-0.9c1.1-2,2.4-3.9,3.7-5.9c0.3-0.4,0.7-0.7,1-0.9
		c1.6-1.2,2.6-0.8,3,0.8c0.2,1,0,1.9-0.1,2.8c-1.1,6.9-3.6,13.3-6.9,19.5c-1.2,2.2-2.4,4.3-4.1,6.2c-0.6,0.7-1.3,0.9-2,0.8
		C357.7,369,357.4,368.2,357.3,367.4z"/>
	<path class="st3" d="M358.6,369.1c0.7,0.1,1.4-0.1,2-0.8c1.6-1.9,2.9-4,4.1-6.2c3.3-6.1,5.9-12.6,6.9-19.5c0.1-0.9,0.3-1.9,0.1-2.8
		c-0.4-1.7-1.4-2-3-0.8c-0.2,0.2-0.7,0.5-1,0.9c-1.3,2-2.6,3.9-3.7,5.9c-0.2,0.3-0.3,0.6-0.5,0.9c-0.2,0.4-0.4,0.9-0.6,1.3
		c-0.2,0.4-0.4,0.9-0.6,1.3c-0.4,0.9-0.8,1.7-1.1,2.6c-1.2,2.9-2.2,5.9-3,8.9c-0.6,2.1-1.1,4.3-0.9,6.6
		C357.4,368.2,357.7,369,358.6,369.1z"/>
	<path class="st0" d="M358.6,369.1c0.7,0.1,1.4-0.1,2-0.8c1.6-1.9,2.9-4,4.1-6.2c3.3-6.1,5.9-12.6,6.9-19.5c0.1-0.9,0.3-1.9,0.1-2.8
		c-0.4-1.7-1.4-2-3-0.8c-0.2,0.2-0.7,0.5-1,0.9c-1.3,2-2.6,3.9-3.7,5.9c-0.2,0.3-0.3,0.6-0.5,0.9c-0.2,0.4-0.4,0.9-0.6,1.3
		c-0.2,0.4-0.4,0.9-0.6,1.3c-0.4,0.9-0.8,1.7-1.1,2.6c-1.2,2.9-2.2,5.9-3,8.9c-0.6,2.1-1.1,4.3-0.9,6.6
		C357.4,368.2,357.7,369,358.6,369.1z"/>
	<path class="st4" d="M326.1,736.6c1.8-1.6,3.6-3.2,5.5-4.7c8.9-7.4,18-14.5,27.4-21.2c-2.4,2-5,4.1-5.9,7.2c-2,6.4,4,9.9,9.3,11.3
		c6.6,1.8,13,2.6,16.4-4.1c1-2,2.2-4.2,4.1-5.4c1.9-1.2,5-1,6,1.1c1.2,2.3-0.9,5.4,0.4,7.7c0.9,1.5,2.8,1.9,4.5,2.1
		c7.3,0.9,14.8,1.1,22.2,0.5c3.8-0.3,8.3-1.3,10-4.7c1.5-3,0.1-6.6-1.4-9.6c-4.5-8.6-10.6-16.3-18-22.5c12.6-2.3,25.6-4.7,38.2-2.3
		c4.6,0.9,9.4,2.5,12.6,5.9c3,3.2,4.4,7.6,4.6,11.9c0.2,4.3-0.8,8.7-2.7,12.6c-4.1-3.1-10.4-1.8-13.7,2.2
		c-3.1,3.8-4.3,10.7-1.6,14.9c-13.7,12.2-37.9,12.9-55.2,13.7c-24.2,1.1-48.5-0.8-72.2-5.8C319.2,743.3,322.5,739.9,326.1,736.6
		L326.1,736.6z"/>
	<path class="st4" d="M403.6,795.1c14.1,4.2,29.7,3.6,43.4-2c-1.5,4.8-5.9,8.3-10.6,10c-4.8,1.6-10,1.5-15,1
		c-11-1.2-21.7-4.6-32-8.7c-13-5.1-25.5-11.2-37.5-18.2c-6-3.5-11.9-7.3-17.6-11.3c-4.6-3.2-13.7-7.9-16.3-12.8
		c4.2-1.3,10.9,1.4,15,2.5c4.9,1.3,9.7,3,14.7,4c11.5,2.5,23.1,4.4,34.8,5.6c-1.1,0.7-0.8,2.4,0.1,3.2c0.9,0.8,2.2,1.1,3.4,1.4
		c2.8,0.7,5.4,1.9,7.7,3.6c0.7,0.6,1.5,1.4,1.2,2.3c-0.2,0.5-0.8,0.8-1.3,1.2c-3.4,2.1-4.8,7.1-2.9,10.6c1.6,3,4.8,4.7,8,5.9
		C400.3,794.1,402,794.6,403.6,795.1L403.6,795.1z"/>
	<path class="st5" d="M235.7,729.6c3.5,4.3,14.2,6.4,19.2,8.1c12.4,4.1,24.5,9.1,37.7,9.9c0.1,0,0.1,0,0.2,0c0,0-0.1-0.1-0.1-0.1
		c-11.7-12.7-14.6-10.5-30.2-9.9c-7.9,0.3-10.8-5.2-15.1-9.4c-1.4-1.4-2.9-2.7-4.8-3.6C237.9,722.4,230.3,723,235.7,729.6z"/>
	<path class="st2" d="M278.7,734.2c0.9,0.2,1.3-0.4,2.1-0.4c0.4,0,0.8,0.3,1.1,0.5c4.6,3.7,9.3,7.4,13.9,11.1
		c0.4,0.3,0.9,0.8,0.7,1.3c-0.2,0.8-1.3,0.7-2.1,0.4c-0.6-0.2-1.4-0.2-1.8,0.2c0,0,0.1,0.1,0.1,0.1c-0.1,0-0.1,0-0.2,0
		c0,0.1-0.1,0.2-0.1,0.3c4.9,0.8,9.9,1.7,14.8,2.5c0,0,0,0,0,0c1.6,0.3,3.1,0.5,4.7,0.8c1,0.2,2.5,0.1,2.6-1
		c0.1-0.6-0.4-1.1-0.9-1.6c-3.4-3-6.8-5.9-10.2-8.9c-1.8-1.6-3.6-3.1-5.4-4.7c-2.7-2.4-5.5-4.8-8.3-7.2c-0.1-0.1-0.3-0.3-0.5-0.3
		c-0.2,0-0.5,0.1-0.7,0.2c-2.4,1.5-4.8,2.8-7.2,4.3C280.4,733.2,278.5,732.2,278.7,734.2z"/>
	<path class="st1" d="M292.6,747.5c0.1,0,0.1,0,0.2,0c0,0-0.1-0.1-0.1-0.1C292.7,747.4,292.7,747.4,292.6,747.5
		C292.6,747.4,292.6,747.5,292.6,747.5z"/>
	<path class="st6" d="M384.7,304.7c-0.7-3.3-1.9-6.6-3.7-9.5c-0.8-1.3-7.3-7.6-5.7-8c10.3-2,19.8-5,30.4-5.7
		c10.7-0.7,21.6,0.1,32.1,2.3c7.8,1.6,15.8,4.2,21.3,10c5.7,6,7.8,14.7,7.3,22.9c-0.5,8.2-3.4,16.1-6.6,23.7
		c-6.8,16.1-15.3,31.5-24.5,46.4c-6.5,10.4-23.2,26.6-21,39.6c0.9,5.5,3.7,10.4,5.9,15.5c11.2,25.8,7,58.7-12.4,79.6
		c-1.5-3.8-3.1-7.7-4.6-11.5c-3.9-9.6-10.1-32.2-19.7-37.6c-5.7-3.3-7.8,4.9-11.2,10.2c-4.1,6.3-8.3,12.6-12.5,18.9
		c-0.5-2.5,0.1-5.1,0.7-7.6c5.5-25.6-3.5-50.3-18.1-71.2c7.2-13.5,14.1-27.2,20.7-41c8.7-18.1,17-36.7,20.9-56.5
		c1.3-6.5,2.1-13.2,1-19.7C384.8,305.2,384.7,305,384.7,304.7L384.7,304.7z"/>
	<path class="st6" d="M462.9,704.2c-0.3-0.6-0.5-1.3-0.9-1.9c7.9-1.1,16-0.8,23.7,1c5.3,1.2,10.6,3.1,14.2,7.1
		c4.6,5,5.7,12.6,3.8,19.1c-1.9,6.5-6.4,12-11.7,16.3c-13.8,11-32.3,13.7-49.9,14c-13.6,0.2-28.2-4-41.4-2.9c-0.5,0-1.8,0.2-1.3-1.2
		c0.2-0.1,0.5-0.3,0.7-0.3c16-0.6,35.5-4.6,48.7-13.9C460.6,733.2,468.2,717.3,462.9,704.2L462.9,704.2z"/>
	<path class="st6" d="M434.1,804.2c7.3-1.9,13.1-8.7,13.7-16.2c1.1-13.2-9.5-17.1-19.1-21.8c5,0.5,10.3,2.6,15.3,3.7
		c8.3,1.8,17,2.9,24.4,7.2c7.4,4.2,13.3,12.5,11.6,20.9c-1.8,8.8-11.5,14.2-20.5,14.2C450.7,812.2,442.2,808.2,434.1,804.2
		L434.1,804.2z"/>
	<path class="st7" d="M378.9,764.8c-1.2,0-2.4-0.1-3.6-0.2c-1.7-0.2-3.4-0.5-5-1.1c-4.8-1.8-9.2-6.2-12.2-10.1
		c12.8-3.4,26.1,7.3,38.4,9.2c8.1,1.2,16.5-0.3,24.3,2c-11.9-0.5-23.8-0.2-35.7,0.1c-0.7,0-1.4,0-2.2,0
		C381.7,764.8,380.3,764.8,378.9,764.8L378.9,764.8z"/>
	<path class="st1" d="M250.3,503.6C250.4,503.6,250.4,503.6,250.3,503.6L250.3,503.6C250.4,503.6,250.4,503.6,250.3,503.6z"/>
	<path class="st1" d="M251,503.4c0.2,0,0.5,0.1,0.7,0.1C251.5,503.3,251.3,503.3,251,503.4z"/>
	<path class="st1" d="M250.3,503.6C250.4,503.6,250.4,503.6,250.3,503.6L250.3,503.6C250.4,503.6,250.4,503.6,250.3,503.6z"/>
	<path class="st1" d="M209.3,434.6c0.1-0.1,0.1-0.1,0.2-0.1c0.4-0.3,0.4-0.7,0.2-1.1c0-0.1-0.1-0.1-0.1-0.2
		C208.9,433.6,208.8,434.1,209.3,434.6z"/>
	<path class="st6" d="M285.1,717.5c-23.8-21.5-30.5-55.4-27.5-88.3c2.6-28.5,12.2-55.8,23.1-82.2c9.6-23.2,20.4-46,32.2-68.2
		c0.7-1.3,1.8-2.8,3.3-2.5c0.8,0.2,1.4,0.8,1.9,1.4c9.6,11.6,17.8,24.3,24.5,37.7c1.4,2.8,2.7,5.7,2.8,8.7c0.2,4.6-2.4,8.7-4.7,12.6
		c-18.1,29.6-32.8,62.2-35.9,96.7c-3.2,36.4,8.2,69.2,32.7,95.8c-4.7,4.8-11.8,7-18.7,6c-6.1-0.9-11.8-3.8-17.3-6.7
		C295.2,725.6,289.8,721.8,285.1,717.5z"/>
	<path class="st8" d="M209.5,434.5c0.4-0.3,0.4-0.7,0.2-1.1C209.6,433.8,209.6,434.1,209.5,434.5z"/>
	<path class="st8" d="M251,503.4c0.2,0,0.5,0.1,0.7,0.1C251.5,503.3,251.3,503.3,251,503.4z"/>
	<path class="st9" d="M290.6,304.8c2.5,0.4,5,0.1,7.4-0.4c3.4-0.7,6.8-1.7,10.1-2.7c3.6-1.2,7.2-2.7,10.4-4.8c0.3-0.2,0.7-0.5,1-0.7
		c0.9-0.6,1.3-1.4,1-2.4c-0.3-1-1.3-1-2.1-1.2c-0.3-0.1-0.7,0-1,0c-2,0-3.9,0.4-5.8,0.7c-5.4,0.8-10.4,2.6-15.4,4.6
		c-2.3,0.9-4.6,1.9-6.5,3.6c-0.6,0.5-1.1,1.2-1,1.9C288.9,304.3,289.7,304.6,290.6,304.8z"/>
	<path class="st10" d="M424.8,768.8c6.5,1.4,13.2,3.8,17.3,9c4.2,5.2,4.6,13.9-0.6,18.1c-2.2,1.7-4.9,2.5-7.6,3
		c-12.3,2.5-25.3,1.3-37-3.4c-2.8-1.1-5.7-2.5-7.5-5c-1.8-2.4-2.3-6.1-0.4-8.4c1.2-1.4,3.2-2.3,3.6-4.1c0.6-2.8-2.9-4.5-5.7-5.1
		c-6.5-1.3-7.1-4.1-1.4-6.2c4.5-1.6,10.8,0.1,15.5,0c7.9,0,15.8,0.4,23.6,2C424.7,768.8,424.8,768.8,424.8,768.8L424.8,768.8z"/>
	<path class="st10" d="M406.4,694.6c1.4,0.6,2.5,1.7,3.6,2.8c6.1,6.2,12.9,13.9,15.8,22.3c0.7,2.1,1.2,4.4,0.3,6.4
		c-1.4,3.4-5.6,4.4-9.3,4.8c-8,0.8-16.1,0.6-24-0.6c-0.8-0.1-1.7-0.3-2.4-0.8c-3.1-2.2,0.2-8.5-3.1-10.5c-1.7-1-3.9,0-5.2,1.5
		c-5.5,6.6-8.9,10.5-18.5,9c-5.7-0.9-13-4.8-10.5-11.7c1.5-4.1,5.5-6.6,9.3-8.6c11.7-6.2,24.6-11.2,37.4-14.5c2-0.5,4-0.9,6-0.3
		C406,694.5,406.2,694.6,406.4,694.6L406.4,694.6z"/>
	<path class="st10" d="M458.8,722.7c0.3,0.6,0.4,1.2,0.3,1.8c-0.1,0.9-0.6,1.8-1.1,2.6c-1.9,2.9-10.5,16.6-14.9,10.6
		c-1-1.4-1.2-3.3-1-5.1c0.6-5.1,4.1-9.7,8.9-11.7c1.7-0.7,3.6-1,5.3-0.5C457.3,720.9,458.3,721.7,458.8,722.7L458.8,722.7z"/>
	<path class="st10" d="M203.8,630.6c3.8,3.2,9,5,13.8,3.9c3.5-0.8,6.6-3.1,9.2-5.7c5.3-5.2,9.6-12.2,10.3-19.8
		c0.7-6.8-3.8-12.2,0.8-18.6c2.2-3.1,5.4-5.4,8.5-7.8c0.5-0.4,1-0.8,1.6-1.2c1.3-1,2.6-2.1,3.8-3.3c1.8-1.8,3.5-3.8,4.7-6.1
		c0.4-0.8,0.8-1.6,1.1-2.4c0,0,0,0,0,0c0.5-1.1,0.9-2.2,1.1-3.4c0.5-2.3,0.2-4.8-0.6-7c-0.8-2.1-2-4-3.7-5.5
		c-0.6-0.7-1.2-1.3-1.9-1.9c-0.2-0.2-0.3-0.3-0.5-0.5c-0.6-0.5-1.2-1.1-1.8-1.6c-5.6-4.7-12.6-9.2-19.8-8c-6.8,1.2-11.7,7.1-15.1,13
		c-4.5,7.8-7.5,16.4-9.8,25.1c-1,3.6-1.9,7.3-3.9,10.4c-1.7,2.7-3.9,4.3-6.7,5.5c-2.3,1-3.6,0.2-4.2,3.3c-1.1,6.6,1.3,13.3,4.3,19.3
		C197.3,623.1,200,627.4,203.8,630.6z"/>
	<path class="st10" d="M200.3,529.6c3.2,1.7,7.1,1.2,10.4-0.3c3.2-1.5,5.9-4,8.5-6.5c2.4-2.3,4.8-4.6,7.3-6.8
		c3.7-3.3,7.6-6.4,11.9-9c0.5-0.3,1-0.6,1.6-0.9c1.7-0.9,3.4-1.6,5.2-2.2c1.3-0.4,2.5-0.6,3.8-0.6c0.7,0,1.3,0,2,0.1
		c0.3,0,0.5,0,0.7,0.1c0.5,0.1,1,0.2,1.4,0.3c0,0,0.1,0,0.1,0c1.4,0.4,2.7,1.1,3.9,2c3,2.3,5.1,5.9,6.3,9.6c1.7,5.2,1.9,10.7,3,15.9
		c0,0.1,0.1,0.2,0.1,0.4c0.2,0.8,0.5,1.6,1.2,2.1c0.3,0.2,0.7,0.3,1,0.3c0.9,0,1.9-0.8,2.6-1.7c0.2-0.3,0.4-0.5,0.6-0.8
		c4.1-6.4,6.3-13.8,7.9-21.3c0.5-2.3,0.9-4.6,1.3-6.9c1.1-6.2,1.8-12.5,2.1-18.8c0.3-5.5,0.7-10.9-0.8-16.1c-0.3-1-0.6-2.1-1.1-3.1
		c-2.6-5.9-7.1-10.9-11.3-15.7c-3.7-4.3-7.4-8.8-9.6-14c-2-4.6-1.6-9.5-3.3-14.1c-1.5-4.1-4.1-8-7.9-10.1c-5-2.8-11.2-2.3-16.7-0.7
		c-6.1,1.8-11.9,5-16.2,9.7c-3.2,3.4-5.9,8-6.9,12.8c0.2,0.4,0.2,0.8-0.2,1.1c-0.1,0.8-0.2,1.7-0.2,2.5c0.1,6.3,2.2,12.4,2,18.8
		c-0.3,9.1-1.7,21.1-8.3,28c-1.8,1.9-3.6,2.9-6.1,2.6c-1.6-0.2-2.8-2.1-4.7-1.4c-1.1,0.4-1.7,1.6-2,2.6c-4.1,11.5-1.2,26.6,5.1,36.9
		C196.6,526.5,198.2,528.5,200.3,529.6z"/>
	<path class="st10" d="M244.8,373.9c5.8,1.2,11.6,2.4,17.3,4.1c3.9,1.2,7.7,2.4,11.2,4.5c2.9,1.6,5,3.8,5.2,7.4
		c0.1,1.2,0.3,2.4,0.4,3.6c0.1,2.7,0.4,5.5,1.2,8.1c0.7,2.4,2.7,3.8,4.8,3.1c1.1-0.4,2.3-0.9,3.2-1.6c3.5-2.7,6.1-6.2,8.2-10.1
		c2.6-4.9,4.1-10.1,4.8-15.6c0.3-2.5-0.1-4.9-0.6-7.4c-0.5-2.7-2.3-4.8-4.2-7.5c-1.4-2.6-4-4.9-6.9-7c-6.2-4.5-13.2-7.9-20.1-11.3
		c-3.7-1.8-7.2-3.8-10.3-6.7c-2-1.9-4.2-3.4-6.8-4.6c-3.4-1.6-8-0.7-10.2,1.4c-2.2,2.2-4,4.8-5,7.7c-2,5.9-2.7,12-1.9,18.2
		c0.4,3.1,1.3,6.2,3,8.9C239.8,371.4,241.8,373.3,244.8,373.9z M215.9,394.9c1.7,1.2,3.6,1.9,5.7,2c4.1,0.2,7.6-2.5,6.4-7.2
		c-0.2-1-0.9-1.6-1.4-2.4c-0.9-2.1-2.9-2.9-4.6-4c-2.4-1.4-5-2.3-7.8-2.4c-3.7-0.1-5.9,2.8-4.9,6.3
		C210.5,390.8,213.1,393,215.9,394.9z M158.5,560.1c0.3-0.1,0.6-0.3,0.9-0.5c3.5-3,6.5-6.6,8.8-10.6c2.6-4.5,1.3-8.2-1.2-10.3
		c-3.6-3.1-9.8-3-10.1,2.5c-0.4,5.5-0.4,11.1,0,16.6C156.8,558.8,157.4,560.3,158.5,560.1z M202.9,697c8.1,11.3,18.2,21.5,30.3,28.3
		c2.1-0.6,1.5-4.1,3.2-5.5c1.4-1.1,3.4-0.3,4.9,0.6c5.5,3.7,9.2,9.8,15.1,12.6c4.8,2.3,10.4,2.2,15.5,0.6c5-1.6,9.5-4.6,13.6-8
		c0.2-0.1-10-14.1-10.9-15.4c-0.5-0.7-1.1-1.4-1.9-1.3c-1.1,0.1-1.4,1.6-1.8,2.6c-1.2,3.1-5.1,3-7.5,1.5c-4.1-2.7-7.9-5.8-11.5-9.2
		c-9.9-9.2-18.3-20.4-28.3-29.3c-10.3-9.1-25.4-20.1-40-16.8c-0.6,0.2-1.4,0.4-1.6,1c-0.2,0.6,0,1.2,0.3,1.7
		C188.4,673.1,194.7,685.6,202.9,697z"/>
	<path class="st9" d="M358.6,369.1c0.7,0.1,1.4-0.1,2-0.8c1.6-1.9,2.9-4,4.1-6.2c3.3-6.1,5.9-12.6,6.9-19.5c0.1-0.9,0.3-1.9,0.1-2.8
		c-0.4-1.7-1.4-2-3-0.8c-0.2,0.2-0.7,0.5-1,0.9c-1.3,2-2.6,3.9-3.7,5.9c-0.2,0.3-0.3,0.6-0.5,0.9c-0.8,1.7-1.6,3.4-2.3,5.2
		c-1.2,2.9-2.2,5.9-3,8.9c-0.6,2.1-1.1,4.3-0.9,6.6C357.4,368.2,357.7,369,358.6,369.1z"/>
	<path class="st9" d="M290.6,304.8c2.5,0.4,5,0.1,7.4-0.4c3.4-0.7,6.8-1.7,10.1-2.7c3.6-1.2,7.2-2.7,10.4-4.8c0.3-0.2,0.7-0.5,1-0.7
		c0.9-0.6,1.3-1.4,1-2.4c-0.3-1-1.3-1-2.1-1.2c-0.3-0.1-0.7,0-1,0c-2,0-3.9,0.4-5.8,0.7c-5.4,0.8-10.4,2.6-15.4,4.6
		c-2.3,0.9-4.6,1.9-6.5,3.6c-0.6,0.5-1.1,1.2-1,1.9C288.9,304.3,289.7,304.6,290.6,304.8z"/>
</g>
</svg>
