<?xml version="1.0" encoding="utf-8"?>
<!-- Generator: Adobe Illustrator 23.0.1, SVG Export Plug-In . SVG Version: 6.00 Build 0)  -->
<svg version="1.1" id="Layer_1" xmlns="http://www.w3.org/2000/svg" xmlns:xlink="http://www.w3.org/1999/xlink" x="0px" y="0px"
	 viewBox="0 0 1920 1080" style="enable-background:new 0 0 1920 1080;" xml:space="preserve">
<style type="text/css">
	.st0{fill:#251F09;}
	.st1{fill:#FFFFFF;}
	.st2{fill:#EBEBEB;}
	.st3{opacity:0.7;fill-opacity:0.1;}
	.st4{fill-opacity:0.1;}
	.st5{fill:#FCFCFC;}
	.st6{opacity:0.3;}
	.st7{fill:#C2C76B;}
	.st8{fill:#403D40;}
	.st9{fill:#FFAB40;}
</style>
<g>
	<g>
		<path class="st0" d="M602.4,765.2c6.6-0.7,13.2-1,19.7-2.1c26-4.5,47-16.9,60.3-40.2c11-19.2,13.5-40,10.4-61.7
			c-3.7-25.9-16.2-46.4-38.9-59.7c-27-15.9-56-17-85.3-8c-23.2,7.1-40.4,22-50.1,44.6c-8.4,19.7-9.5,40.2-5,61
			c4.6,21.4,15.9,38.4,34.2,50.5C564.3,760.6,582.8,764.7,602.4,765.2 M484.9,576.4h27.7c-0.6,16.6-1.3,33-1.9,49.4l0.7,0.2
			c0.3-0.5,0.8-0.9,1-1.4c7.5-20.5,22.7-33.7,41.4-43.3c41.9-21.6,100.3-14.2,135.2,17.4c20.9,18.9,31.6,42.8,33.1,70.7
			c1.6,29.3-6.1,55.8-25.9,78c-16,18-36.5,28.4-59.7,33.5c-26.4,5.8-52.4,4.2-77.4-6.5c-20.3-8.6-36.5-21.6-44.8-42.9
			c-0.2-0.5-0.6-1-1.5-1.3V856h-27.9V576.4z"/>
		<path class="st0" d="M1408.9,656.3c0-1.2,0-2.3,0-3.3c-1.2-26.9-15.1-45.3-38.9-56.3c-23.5-10.9-48.4-12.3-73.4-6.7
			c-22.5,5-40.5,17-52.7,36.8c-5.6,9-9.3,18.7-10.8,29.4H1408.9z M1413.2,704.3c8.5,1.1,16.7,2.2,25.2,3.3
			c-1.1,10.4-4.4,19.7-9.6,28.4c-10.9,18.3-27,30.4-46.5,37.7c-36.7,13.8-74,15.3-111,1.4c-43.3-16.2-68.4-54.4-67.9-100.7
			c0.6-52.8,36.9-89.9,81.5-101.1c34.8-8.8,69.1-7,101.6,9.4c30.7,15.5,47.1,41.1,49.5,75.6c0.2,3.5,0.3,7,0.3,10.5
			c0,1.4-0.4,2.8-0.7,4.6h-203.7c-0.6,14.5,1.5,28.1,7.2,40.9c11.1,25.1,30.5,40.6,57,46.8c29.9,6.9,59.1,5,86-11.1
			c15.8-9.5,25.8-23.7,30.2-41.7C1412.5,706.9,1412.8,705.7,1413.2,704.3"/>
		<path class="st0" d="M999.8,493.6h27.6v182.2c2-1.1,3.4-1.6,4.6-2.5c44.5-31.7,88.9-63.4,133.5-95c1.6-1.2,4-1.9,6-1.9
			c10.3-0.2,20.5-0.1,30.8-0.1h3.3c0.1,0.3,0.1,0.5,0.2,0.8c-36.2,26-72.3,52.1-109,78.5c38.5,40.1,76.9,80.1,116,120.9
			c-6.2,0-11.4,0-16.6,0c-6.1,0-12.9,1.6-18.1-0.6c-5.2-2.2-8.7-8.2-12.9-12.6c-29.4-31.1-58.9-62.2-88.3-93.4
			c-1.2-1.3-2.5-2.6-4-4.2c-1.8,1.2-3.5,2.3-5.2,3.5c-12.4,8.3-24.7,16.7-37.2,24.9c-2.3,1.5-3.2,3.2-3.1,6
			c0.1,23.8,0.1,47.5,0.1,71.3v4.9h-27.6V493.6z"/>
		<path class="st0" d="M855.9,764.8c11.9,0.1,23.6-1.1,34.9-4.7c24.3-7.8,42.3-22.6,52.3-46.5c6.9-16.6,8.3-33.9,6-51.5
			c-4.2-31.2-20.5-53.8-49.3-66.2c-26.1-11.2-53.2-11.2-79.7-1.3c-23.6,8.7-40.1,25.3-48.4,49.4c-5.5,15.9-6.5,32.3-4,48.8
			c3.6,23.7,14.7,43,34.9,56.5C818.6,760,836.7,764.4,855.9,764.8 M858,784.4c-25.7-0.1-50-5.6-71.8-19.5
			c-28.5-18.2-44.4-44.4-47.5-78.1c-2.9-30.9,5.5-58.4,26.7-81.3c17.1-18.5,38.6-29.5,63.2-34.2c33.5-6.4,65.9-3.3,96.2,13.5
			c36.9,20.4,57.1,59.7,53.4,101c-4,45.3-34.2,81-81.3,93.7C884.1,782.9,871.2,784.4,858,784.4"/>
		<path class="st0" d="M738,384.2c-7.7,1-15.1,2.1-22.5,2.9c-0.7,0.1-2.2-1.2-2.4-2.1c-4.9-25.1-27.3-47.7-61.1-50.8
			c-15.8-1.4-31.4-0.9-46.4,4.7c-9.1,3.3-17.1,8.2-22.4,16.6c-10.3,16.6-2.9,37.6,16.2,46.2c10.6,4.7,21.9,6.2,33.3,7.2
			c19,1.8,38.1,2.3,56.7,7c12.8,3.2,25.1,7.8,35,16.9c18.9,17.4,19.8,48.4,2.3,67.8c-9.5,10.5-21.2,17.6-34.5,21.7
			c-35.3,10.8-70.6,10.4-105.4-2.2c-21.3-7.7-38.5-20.8-48.4-41.9c-2.4-5.2-4.1-10.9-6.3-16.9c8.6-1.6,16.6-3.1,24.7-4.5
			c2.7,9.7,6.5,18.5,12.6,26c11.1,13.8,25.8,21.5,42.7,25.2c23.5,5.1,46.9,5.2,69.8-2.7c8.4-2.9,16-7.4,22-14.2
			c13.7-15.7,8.6-39.3-10.4-47.9c-13.8-6.3-28.6-7.9-43.5-9.4c-15.7-1.6-31.5-2.9-47.1-5.6c-15.4-2.7-29.3-9.3-39.7-21.9
			c-17.6-21.3-14.2-53,7.5-70.1c14.9-11.7,32-17.4,50.4-19.7c22.4-2.7,44.5-1,65.9,6.7C714,332.7,733.7,356.1,738,384.2"/>
		<path class="st0" d="M510.1,522.4h-27.1c-2.5-20.6-5-41.2-7.5-61.9c-0.3,0-0.5-0.1-0.8-0.1c-0.3,1.3-0.6,2.6-0.9,3.9
			c-3.9,19.6-12,36.6-28.9,48.5c-10.2,7.2-21.7,11-34,12.6c-16.1,2.1-32.1,1.6-47.9-2.7c-27.4-7.5-43.5-25.8-50.4-52.9
			c-3.4-13.3-4.7-26.8-4.7-40.5c0-34.8,0-69.6,0-104.4c0-0.6,0.1-1.3,0.1-2.2h27.3c0,1.4,0,2.8,0,4.3c0.1,35.4,0.1,70.9,0.4,106.3
			c0.1,13.4,2.2,26.6,7.2,39.2c7,17.3,20,27.4,37.8,31.5c16.5,3.8,33,3.7,49.2-1c21.6-6.2,34-21.2,39.9-42.3
			c3.5-12.5,4.2-25.3,4.2-38.2c0-31.7,0-63.3,0-95v-4.9h27.6v4.4c0,36.5,0.3,72.9-0.1,109.4c-0.2,18.8,2.1,37.2,4.5,55.8
			C507.6,502.2,508.8,512.1,510.1,522.4"/>
		<path class="st0" d="M797.9,341.5h-40.1v-19.4c4.7,0,9.4,0.3,14-0.1c18.4-1.5,29.2-12.1,33.8-29.4c1.7-6.5,2.3-13.2,3.3-19.9
			c0.2-1.5,0.2-3.1,0.3-4.8h28.3c-0.7,17.3-2.1,34.3-16.2,46.5c-4.2,3.6-10,5.5-14.6,7.9h96.8v19.1h-4.6c-23.1,0-46.2,0-69.3,0
			c-2.3,0-4.2-0.2-4.2,3.3c0.2,36.8,0.1,73.7,0.4,110.5c0.1,6.7,1.2,13.5,3.1,19.9c5.2,18,18.1,26.9,36.2,29.5
			c12.2,1.7,24-0.1,35.9-2.7c1.3-0.3,2.5-0.5,4.2-0.8c0.3,6.6,0.6,13,0.9,20.1c-7.2,1.4-14.2,3-21.3,4c-14.6,2.1-29.2,2.1-43.5-2.4
			c-23-7.3-36.4-23.2-40.8-46.5c-1.6-8.5-2.3-17.2-2.3-25.9c-0.3-34.6-0.1-69.3-0.1-103.9V341.5z"/>
		<path class="st0" d="M152.6,574c5.6,1.1,11.4,2.8,17.3,3.3c8.1,0.7,16.3,1.3,24.4,0.5c19-2.1,31.4-14,35.1-32.7
			c1-5.3,1.5-10.8,1.5-16.2c0.1-67.1,0.1-134.2,0.1-201.2v-4.9h27.4v4.1c0,67.9,0,135.7,0,203.6c0,14.5-2.6,28.4-10.4,40.9
			c-9.6,15.2-23.5,24.2-41,27.6c-17.4,3.4-34.6,1.8-51.6-2.7c-1-0.3-2.5-1.6-2.6-2.6C152.5,587.1,152.6,580.7,152.6,574"/>
		<path class="st0" d="M1593.7,603.6c-6.3-1.3-12.2-2.9-18.2-3.5c-13.8-1.5-27.6-0.6-40.6,4.6c-18.2,7.4-28.6,21.8-33.8,40.1
			c-4.8,16.8-6.3,34.1-6.3,51.6c0,25,0,50.1,0,75.1v4.6h-27.7V576.6h27.7c-0.9,21.9-1.8,43.8-2.7,65.7c0.4,0.1,0.8,0.1,1.3,0.2
			c0.3-1.1,0.7-2.2,1-3.3c3.7-16.4,10.2-31.5,21.8-44.1c14.4-15.7,32.8-21.3,53.3-21c7.3,0.1,14.6,1.9,21.8,3.2
			c1,0.2,2.4,1.7,2.5,2.6C1593.8,587.8,1593.7,595.7,1593.7,603.6"/>
	</g>
	<g>
		<path class="st1" d="M1704.4,333.2c-69.9-81.3-169.3-124.3-269.7-104.3c-26,5.2-52,15.5-74.1,31.7c-17.3,12.7-38.5,34.9-41.9,60
			c0.1-0.2,0.2-0.3,0.3-0.5c0.4-0.7,0.8-1.3,1.2-1.9c-0.5,5.8-1.6,11.2-1.5,16.3c0.1,0.7,0.2,1.4,0.3,2.1
			c2.6,13.5,12.4,20,23.1,24.2c0.3,0.1,0.6,0.2,0.9,0.3c0.3,0.1,0.6,0.2,0.9,0.3c0.3,0.1,0.7,0.2,1,0.4c1,0.4,2,0.7,3.1,1
			c28.2,9,59.8,9.6,88.9,10.8c31.7,1.4,63.5,1.8,95.2,2.6c-6.6-3-13-6.8-18.4-11.9c5.6,5.1,12.3,8.6,19,11.9c-0.2,0-0.4,0-0.6,0
			c3.7,1.7,7.4,3.1,11,4.3c0.6,0.2,1.8,0.6,3.3,1.1c6.8,2.1,21.2,5.9,27.1,4c-0.3,0.1-0.6,0.1-0.9,0.1c-7.6,0.6-15.2-1.4-22.5-3.9
			c-2.3-0.8-4.5-1.6-6.7-2.5c-6-2.3-11.8-5.1-17.5-8.3c-4.9-2.7-9.9-5.3-13.8-9.6c-0.8-0.8-1.5-1.8-2.2-2.8
			c-3.9-5.8-6.1-12.9-8.3-19.7c-1.9-6-4.1-12.1-7.5-17.2c-3.1-4.5-7.5-6.8-10.8-11c-2.9-3.7-5-8.4-5-13.3c0-6.4,3.5-12.3,7.6-16.8
			c4.6-5,10.2-8.9,16.5-10.7c4.5-1.2,9.9-1.4,14.6,0.3c0-0.1-0.1-0.2-0.1-0.2c0.7-0.5,1.1-0.3,1.4,0.6c-0.1,0-0.1,0.1-0.2,0.1
			c0.8,0.3,1.5,0.7,2.3,1.2c5.5,3.5,9.8,9,15.5,12.3c8.1,4.7,19.3,9.9,28.6,7.2c2.5-0.7,4.4-1.9,5.3-4.6c0.6-1.7-0.4-3.9,1-5.4
			c0.9-0.9,2.2-0.8,3.3-0.6c12.1,2.3,24,13.4,29.9,25.3c1.2,2.4,2.1,5,2,7.6c-0.1,4-2.4,7.7-5.3,10c-2.9,2.4-6.4,3.6-9.9,4.8
			c-3.2,1.1-6.4,2.2-9.6,3.5c-4.7,1.8-9.4,4-13.7,6.8c-0.5,0.3-1,0.7-1.6,1.1c-1.6,1.2-3.1,2.5-4.5,4c-0.9,1.1-1.8,2.2-2.4,3.4
			c-0.4,0.6-0.7,1.3-0.9,2c-0.1,0.3-0.2,0.5-0.3,0.8c-0.2,0.5-0.3,1-0.4,1.6c0,0.1,0,0.1,0,0.2c-0.3,1.6-0.3,3.3-0.1,4.9
			c0.6,4.2,2.7,8.3,5.3,11.5c3.7,4.5,8.4,7.7,12.5,11.8c0.1,0.1,0.2,0.2,0.3,0.3c-0.4-0.6-0.9-1.1-1.4-1.6c-2.6-2.6-5.2-5.1-7.8-7.7
			c-0.8-0.7-1.6-1.5-2.3-2.3c0.8,0.8,1.5,1.5,2.3,2.3c9.4,8.6,22,12.5,34,10.6c-1-1.1-1-3-0.1-4.2c-0.1-0.2-0.1-0.5-0.2-0.7
			c-0.2-0.9-0.3-1.7-0.5-2.6c-1.4-8.2-2-17.5,2.7-23.9c4.3-6,11.9-7.6,18.8-7.7c9.1-0.1,18.1,1.7,26.9,4.1c3.6,1,7.3,2.1,11,1.9
			c3.2-0.2,5.7-1.5,8.2-3.6c1.9-1.7,1.9-3.5,4.9-2.3c6.4,2.5,11.1,8.6,14.8,14.9c2.8,4.6,5.3,9.6,6.2,15.1c0.9,5.5,0,11.6-3.3,15.7
			c-2.5,3-6,4.8-9.5,5.9c-7.2,2.4-15.4,2.7-22.4-0.7c-6.3-3.1-8.8-10.4-16.7-9.4c-3.9,0.5-7.4,2.4-11,4.1c3.8-1.3,7.6-2.6,11.4-3.9
			c-2.5,1.5-4.9,3-7.4,4.6c23.6,6.6,48.4,17.3,67.5,34.6c14.2,12.9,33.5,31.7,31.9,54.5c0,0.7-0.1,1.5-0.5,2.1
			c-0.9,1.5-3,1.3-4.3,0.3c-1.4-1-2.8-2.1-4-3.3c4.7,11.9,8.6,24.6,11.6,33.9c0-0.2-0.1-0.4,0-0.6c0.1-0.3,0.3-0.4,0.5-0.5
			c2.5-1.5,4.8-3.2,7.3-4.7c1.5-0.6,1.5-3,3.2-1.7c-0.3,0.9-1,1.1-1.3,1.8c-0.2,0.4-0.1,0.9-0.1,1.4c1,6.6,2,13.2,3,19.8
			c0.1,0.6,0.3,1.3,0.8,1.4c0.8,0.3,1.2-0.9,1.4-1.8c0.1-0.7,0.6-1.5,1.1-1.6c-5.4-18.5-2.1-20.2,6.1-35.2c4.2-7.6,0.8-13.5-0.9-20
			c-0.5-2.1-0.9-4.4-0.8-6.7c0.4-5.8,4.6-13,7.8-4c2.1,5.9-1.3,17.5-2.3,23.4c-2.5,14.5-4.1,29.2-9.8,42.6c0.1,0,0.2,0,0.3,0.1
			c-1.7,5.3-3.4,10.7-5.1,16c9.1-18.2,20.4-47.5,20.2-64.8c-0.2-21.8-8.1-53.3-15.8-73.6C1740.4,372.8,1724.1,356.1,1704.4,333.2z
			 M1558.6,348.9L1558.6,348.9C1558.6,348.8,1558.6,348.8,1558.6,348.9C1558.6,348.8,1558.6,348.9,1558.6,348.9z"/>
		<path class="st1" d="M1364.3,279.2c-0.8,2.7-2.4,5-4,7c-2.3,2.9-4.8,5.8-7.4,8.4c-2.8,2.9-5.9,5.6-9.3,7.7
			c-0.4,0.2-0.8,0.4-1.2,0.6c-0.9,0.6-1.9,0.5-2.6-0.3c-0.7-0.8-0.3-1.8,0-2.7c0.1-0.4,0.3-0.7,0.5-1c0.9-2,2.2-3.6,3.4-5.4
			c3.3-4.8,7.4-8.9,11.6-12.6c1.9-1.7,3.9-3.4,6.3-4.4c0.8-0.3,1.6-0.5,2.2,0C1364.7,277.2,1364.6,278.2,1364.3,279.2z"/>
		<path class="st1" d="M1480,255.2c0.2,2.3-0.1,4.7-1,6.8c-1.8,4.2-5.9,6.1-9.5,2.4c-0.7-0.8-1-1.8-1.4-2.7c-1.4-2-1.2-4.4-1.2-6.7
			c-0.1-3.1,0.4-6.2,1.7-8.9c1.7-3.7,5.3-4.3,7.9-1.3C1479.1,247.5,1479.8,251.3,1480,255.2z"/>
		<path class="st1" d="M1532.6,376.1c-0.2,0-0.4,0-0.6,0c-6.6-3-13-6.8-18.4-11.9C1519.2,369.3,1526,372.8,1532.6,376.1z"/>
		<path class="st1" d="M1518.1,270.5c-0.1,0-0.1,0.1-0.2,0.1c-0.4,0.2-0.8,0-1-0.4c0-0.1-0.1-0.2-0.1-0.2
			C1517.4,269.4,1517.9,269.6,1518.1,270.5z"/>
		<path class="st1" d="M1566.1,371.1c-0.8-0.7-1.6-1.5-2.3-2.3C1564.5,369.6,1565.3,370.4,1566.1,371.1z"/>
		<path class="st1" d="M1558,349.3c-0.1,0.3-0.2,0.5-0.3,0.8C1557.8,349.8,1557.9,349.6,1558,349.3z"/>
		<path class="st1" d="M1558.6,348.8C1558.6,348.8,1558.6,348.9,1558.6,348.8L1558.6,348.8C1558.6,348.8,1558.6,348.8,1558.6,348.8z
			"/>
		<path class="st1" d="M1653.2,289.3c-0.2,0.3-0.6,0.4-0.9,0.6c-4.4,1.8-9,2.8-13.6,2.9c-5.2,0.1-7.8-3.2-8.5-6.9
			c-0.9-5.3,2.2-11.2,7.1-8.6c5,2.6,9.9,5.7,14.6,9.1C1652.8,287,1653.9,288.4,1653.2,289.3z"/>
		<path class="st1" d="M1764.1,458.6c2.1,5.9-1.3,17.5-2.3,23.4c-2.5,14.5-4.1,29.2-9.8,42.6c0,0.1-0.1,0.1-0.1,0.2
			c0-0.1,0-0.1-0.1-0.2c-5.4-18.5-2.1-20.2,6.1-35.2c4.2-7.6,0.8-13.5-0.9-20c-0.5-2.1-0.9-4.4-0.8-6.7
			C1756.7,456.9,1760.9,449.7,1764.1,458.6z"/>
		<path class="st1" d="M1751.5,408.3c6,14.2,10,29.7,10,45.4c-1.6,1.7-4.3-0.8-6.4,0.1c-1.6,0.7-2,3.2-1.8,5.1
			c0.5,7.4,4.1,14.4,3.7,21.9c-0.3,6-3.2,11.5-7,15.6c-3.9,4.1-8.7,6.8-13.7,9c-0.2,0.1-7.5-17.6-8.2-19.2c-0.3-0.8-0.7-1.8-0.2-2.6
			c0.7-1,2.1-0.5,3.2-0.3c3.3,0.5,5.2-3.4,5-6.6c-0.3-5.5-1.2-11-2.4-16.4c-3.3-14.8-8.9-29.2-11.8-44c-2.9-15.1-5.2-36.1,4.9-48.7
			c0.4-0.6,1-1.1,1.7-1c0.6,0.1,1,0.7,1.4,1.3C1737.7,381,1745.6,394.1,1751.5,408.3z"/>
		<path class="st2" d="M1513.6,364.2c5.4,5.1,11.8,8.9,18.4,11.9c0.2,0,0.4,0,0.6,0C1526,372.8,1519.2,369.3,1513.6,364.2z
			 M1563.7,368.8c0.8,0.8,1.5,1.5,2.3,2.3C1565.3,370.4,1564.5,369.6,1563.7,368.8z"/>
		<path class="st3" d="M1701.4,423.7c-19.1-17.3-43.9-28-67.5-34.6c2.5-1.5,4.9-3,7.4-4.6c-3.8,1.3-7.6,2.6-11.4,3.9
			c-0.6,0.3-1.2,0.6-1.8,0.9c-1.5,0.7-3.1,1.4-4.8,1.9c-2.5,0.8-5.1,1.3-7.6,1.3c-0.9,0-1.7-0.1-2.6-0.2c0,0,0,0-0.1,0
			c-1.2-0.1-2.3-0.4-3.5-0.8c-2.3-0.8-4.3-2.4-5.8-4.4c-1.5-1.9-2.5-4.2-3.1-6.7c-0.3-1-0.5-1.9-0.7-2.9c-0.9,1.2-0.8,3.1,0.1,4.2
			c-12,1.9-24.6-2-34-10.6c2.6,2.6,5.2,5.1,7.8,7.7c0.5,0.5,1,1,1.4,1.6c0.6,0.6,1.2,1.4,1.2,2.3c0,0.4-0.1,0.8-0.3,1.2
			c-0.5,0.9-1.6,1.4-2.7,1.7c-5.9,1.8-20.3-2-27.1-4c-1.6-0.5-2.8-0.9-3.3-1.1c-3.7-1.2-7.4-2.7-11-4.3c-31.7-0.8-63.5-1.2-95.2-2.6
			c-29.1-1.2-60.7-1.9-88.9-10.8c-1-0.3-2-0.7-3.1-1c-0.3-0.1-0.7-0.2-1-0.4c-0.3-0.1-0.6-0.2-0.9-0.3c-0.3-0.1-0.6-0.2-0.9-0.3
			c-6.8-2.6-13.3-6.1-18.2-11.9c-3.9-4.6-5.1-9.4-5.2-14.3c-0.1-5.1,1-10.5,1.5-16.3c-0.4,0.6-0.8,1.2-1.2,1.9
			c-0.1,0.2-0.2,0.3-0.3,0.5c-4.4,7.3-7.4,17.1-7.5,25.6c-0.5,32.7,37.3,38.4,58.8,41.8c21.8,3.5,43.9,3.7,65.9,4.4
			c2.7,0.1,5.4,0.2,7.7,1.6c3.2,2,4.9,5.9,6.6,9.5c14.6,31,45.3,52.8,76.5,50.1c-5.3-11.6-12.2-22.1-17.7-33.6
			c-3.1-6.4-6-12.9-7.7-19.9c-1.8-7.6,3.3-5.6,8.7-5.6c5.8,0.1,11.7,0.2,17.5,0.5c11.7,0.5,23.3,1.3,34.9,2.5
			c12.5,1.3,25.1,3,37.5,5.1c6.2,1.1,12.5,2.2,18.7,3.5c21.5,4.4,42.7,12.1,61.6,24.6c9.5,6.3,18.3,13.8,26.1,22.6
			c0.8,0.9,1.6,1.8,2.3,2.8c5.4,6.9,9.7,15.1,15.9,21c1.3,1.2,2.6,2.3,4,3.3c1.4,0.9,3.4,1.2,4.3-0.3c0.4-0.6,0.4-1.4,0.5-2.1
			C1734.9,455.4,1715.6,436.5,1701.4,423.7z M1387.5,381.5c-0.3,0.8-0.8,1.3-1.7,1.5c-2.5,0.6-4.9,0.7-7.4,0.6
			c-7-0.1-13.9-1.1-20.5-3.9c-0.9-0.4-1.8-0.7-2.5-1.4c-1.2-1.3-1.1-2.5,0.7-3.4c0.3-0.1,0.8-0.4,1.3-0.4c2.3-0.2,4.7-0.4,7-0.4
			c0.3,0,0.7,0,1,0c0.5,0,1,0.1,1.4,0.1c0.5,0,0.9,0.1,1.4,0.1c1,0.1,1.9,0.2,2.8,0.3c3.1,0.4,6.3,1,9.3,1.9
			c2.2,0.6,4.3,1.3,6.2,2.8C1387.2,379.9,1387.8,380.6,1387.5,381.5z"/>
		<path class="st4" d="M1387.5,381.5c-0.3,0.8-0.8,1.3-1.7,1.5c-2.5,0.6-4.9,0.7-7.4,0.6c-7-0.1-13.9-1.1-20.5-3.9
			c-0.9-0.4-1.8-0.7-2.5-1.4c-1.2-1.3-1.1-2.5,0.7-3.4c0.3-0.1,0.8-0.4,1.3-0.4c2.3-0.2,4.7-0.4,7-0.4c0.3,0,0.7,0,1,0
			c0.5,0,1,0.1,1.4,0.1c0.5,0,0.9,0.1,1.4,0.1c1,0.1,1.9,0.2,2.8,0.3c3.1,0.4,6.3,1,9.3,1.9c2.2,0.6,4.3,1.3,6.2,2.8
			C1387.2,379.9,1387.8,380.6,1387.5,381.5z"/>
		<path class="st1" d="M1386.6,379.4c-1.9-1.5-4.1-2.1-6.2-2.8c-3.1-0.9-6.2-1.5-9.3-1.9c-0.9-0.1-1.9-0.2-2.8-0.3
			c-0.5-0.1-0.9-0.1-1.4-0.1c-0.5,0-0.9-0.1-1.4-0.1c-0.3,0-0.7,0-1,0c-2.3,0-4.7,0.2-7,0.4c-0.5,0-1,0.3-1.3,0.4
			c-1.8,0.9-2,2.1-0.7,3.4c0.7,0.8,1.6,1.1,2.5,1.4c6.6,2.7,13.5,3.8,20.5,3.9c2.5,0.1,5,0,7.4-0.6c0.9-0.2,1.5-0.7,1.7-1.5
			C1387.8,380.6,1387.2,379.9,1386.6,379.4z"/>
		<path class="st5" d="M1726,551.6c-2.3,0.9-4.6,1.8-6.8,2.8c-10.8,4.7-21.5,9.8-32,15.4c2.9-1.3,6.1-2.7,9.2-1.9
			c6.6,1.6,6.7,9.3,5.4,15.4c-1.7,7.5-4.1,14.2-11.6,13.9c-2.3-0.1-4.7-0.2-6.8,1.1c-2,1.2-3.3,4.4-2,6.5c1.5,2.4,5.2,2.1,6.6,4.6
			c0.9,1.7,0.3,3.8-0.3,5.6c-2.8,7.8-6.3,15.2-10.4,22.1c-2.2,3.6-5.2,7.5-9,7.2c-3.4-0.2-5.9-3.5-7.7-6.7
			c-5.4-9.1-9.1-19.4-10.9-30.1c-8.2,11.2-16.6,22.7-20.7,36.4c-1.5,5.1-2.4,10.6-1,15.7c1.3,4.7,4.5,8.5,8.2,11.1
			c3.7,2.6,8,4,12.4,4.2c-0.7-5.7,3.6-11.2,8.6-12.3c4.8-1,11.5,1.6,13.8,6.6c17.4-6.9,29.9-30.2,39.1-46.8
			c12.9-23.2,23-48.3,30.3-74.4C1735.3,548.5,1730.6,549.8,1726,551.6L1726,551.6z"/>
		<path class="st5" d="M1739.4,660.2c-3.2,16.3-11.4,31.2-23,41.7c5,1.2,10.2-1.2,13.9-5c3.7-3.8,6.2-9,8.2-14.2
			c4.3-11.5,6.6-23.9,8.1-36.3c1.9-15.6,2.7-31.3,2.4-47c-0.2-7.9-0.6-15.7-1.3-23.5c-0.6-6.3-0.2-17.9-3.3-23.1
			c-3.2,3.4-4.1,11.5-5.1,16.2c-1.3,5.5-2.2,11.2-3.7,16.7c-3.5,12.7-7.5,25.2-12.1,37.4c1.1-0.7,2.5,0.5,2.8,1.9
			c0.3,1.4-0.2,2.8-0.5,4.1c-0.8,3.1-1,6.3-0.6,9.5c0.1,1,0.5,2.3,1.4,2.4c0.6,0.1,1.1-0.3,1.6-0.6c3.5-2.2,8.5-0.8,10.7,3
			c1.8,3.2,1.7,7.3,1.3,11.1C1740.1,656.3,1739.7,658.3,1739.4,660.2L1739.4,660.2z"/>
		<path class="st2" d="M1751.9,524.6c0,0.1-0.1,0.1-0.1,0.2c0-0.1,0-0.1-0.1-0.2C1751.8,524.6,1751.8,524.6,1751.9,524.6
			C1751.9,524.6,1751.9,524.6,1751.9,524.6z"/>
		<path class="st6" d="M1318.2,371.9c-2.6-2.5-4.9-5.5-6.6-8.8c-0.7-1.5-3.1-11.4-4.2-10c-6.8,9-14.1,16.8-19.9,26.8
			c-5.8,10.2-10.5,21.3-13.7,32.9c-2.4,8.6-4.1,17.9-1.7,26.5c2.5,8.9,9.1,15.7,16.5,19.7c7.5,4,15.8,5.5,24,6.5
			c17.5,2.1,35.1,2.2,52.7,1.3c12.3-0.6,34.7-8.2,45.1,1.1c4.4,3.9,7.3,9.4,10.7,14.4c17.2,25.2,48.1,39.2,76,31.5
			c-2.6-3.6-5.2-7.3-7.8-10.9c-6.5-9.1-23.3-27.6-23.4-40.1c0-7.4,8.1-5,14.4-5.5c7.6-0.6,15.1-1.2,22.7-1.9c-1.9-1.9-4.5-2.7-7-3.5
			c-25.2-8.6-42.4-31.1-53.6-57c-15.4-0.3-30.8-1.1-46.2-2.1c-20.2-1.4-40.5-3.5-59.8-10.5c-6.3-2.3-12.6-5.2-17.7-9.9
			C1318.6,372.2,1318.4,372,1318.2,371.9L1318.2,371.9z"/>
		<path class="st6" d="M1630.5,668.7c-0.4-0.6-0.9-1.2-1.2-1.9c-4.8,7.2-8.5,15.3-10.8,23.9c-1.5,5.8-2.4,12.1-0.7,17.9
			c2.1,7.3,8.2,12.5,14.9,14.3c6.6,1.7,13.7,0.3,20-2.6c16.4-7.5,27.9-24.3,36.7-41.4c6.8-13.2,10.3-30,17.8-42.4
			c0.3-0.5,1.1-1.7-0.4-1.9c-0.2,0.2-0.5,0.3-0.6,0.5c-8.3,15.4-21.4,32.5-36.1,40.4C1657.1,682.3,1639.4,681,1630.5,668.7
			L1630.5,668.7z"/>
		<path class="st6" d="M1732.4,695.3c-5.2,6.2-14,8.1-21,4.6c-12.1-6.1-10.3-18.7-9.7-30.8c-2,5.2-2.8,11.5-4.3,17.1
			c-2.5,9.2-5.8,18.4-5.7,28c0.1,9.6,4.5,20,12.7,22.9c8.6,3.1,18.1-3.5,22.5-12.3C1731.3,715.9,1731.9,705.4,1732.4,695.3
			L1732.4,695.3z"/>
		<path class="st6" d="M1724.9,619.1c0.6-1.2,1.1-2.4,1.6-3.6c0.7-1.8,1.2-3.6,1.5-5.5c0.7-5.7-0.9-12.4-2.9-17.5
			c-9.3,10.7-6.3,29.7-10.8,42.9c-2.9,8.6-8.4,16.1-10.1,25.1c5.4-12,11.5-23.6,17.6-35.1c0.4-0.7,0.7-1.4,1.1-2.1
			C1723.5,621.8,1724.2,620.5,1724.9,619.1L1724.9,619.1z"/>
		<path class="st2" d="M1558.6,348.8C1558.6,348.8,1558.6,348.9,1558.6,348.8L1558.6,348.8C1558.6,348.8,1558.6,348.8,1558.6,348.8z
			"/>
		<path class="st2" d="M1558,349.3c-0.1,0.3-0.2,0.5-0.3,0.8C1557.8,349.8,1557.9,349.6,1558,349.3z"/>
		<path class="st2" d="M1558.6,348.8C1558.6,348.8,1558.6,348.9,1558.6,348.8L1558.6,348.8C1558.6,348.8,1558.6,348.8,1558.6,348.8z
			"/>
		<path class="st2" d="M1518.1,270.5c-0.1,0-0.1,0.1-0.2,0.1c-0.4,0.2-0.8,0-1-0.4c0-0.1-0.1-0.2-0.1-0.2
			C1517.4,269.4,1517.9,269.6,1518.1,270.5z"/>
		<path class="st6" d="M1729.3,500.7c-7.2-35.2-33.7-60.5-64-75.7c-26.2-13.1-54.9-18.7-83.5-22.4c-25.1-3.3-50.4-5.2-75.6-5.7
			c-1.5,0-3.4,0.2-3.8,1.8c-0.2,0.9,0,1.8,0.3,2.6c5.5,15.8,12.6,30.9,21.1,44.8c1.8,2.9,3.6,5.8,6.3,7.6c3.9,2.7,8.8,2.5,13.4,2.3
			c34.9-1.5,70.6,1.8,102.5,17.8c33.5,16.8,56.8,46.1,68.1,84.9c6.5-2,12-7.8,14.4-15.1c2.2-6.6,2.4-13.7,2.6-20.7
			C1731.4,515.1,1730.7,507.7,1729.3,500.7z"/>
		<path class="st7" d="M1517.9,270.6c-0.4,0.2-0.8,0-1-0.4C1517.2,270.3,1517.5,270.4,1517.9,270.6z"/>
		<path class="st7" d="M1558,349.3c-0.1,0.3-0.2,0.5-0.3,0.8C1557.8,349.8,1557.9,349.6,1558,349.3z"/>
		<path class="st8" d="M1364.3,279.2c-0.8,2.7-2.4,5-4,7c-2.3,2.9-4.8,5.8-7.4,8.4c-2.8,2.9-5.9,5.6-9.3,7.7
			c-0.4,0.2-0.8,0.4-1.2,0.6c-0.9,0.6-1.9,0.5-2.6-0.3c-0.7-0.8-0.3-1.8,0-2.7c0.1-0.4,0.3-0.7,0.5-1c0.9-2,2.2-3.6,3.4-5.4
			c3.3-4.8,7.4-8.9,11.6-12.6c1.9-1.7,3.9-3.4,6.3-4.4c0.8-0.3,1.6-0.5,2.2,0C1364.7,277.2,1364.6,278.2,1364.3,279.2z"/>
		<path class="st9" d="M1705.9,666.6c-2,7.2-3.1,15.1-0.6,22c2.6,7,9.9,12.2,16.2,9.3c2.6-1.2,4.6-3.5,6.4-5.9
			c8.2-10.8,13.5-24.3,15.1-38.3c0.4-3.4,0.5-7-0.7-10.1c-1.2-3.1-4.2-5.6-7.2-5c-1.8,0.4-3.6,1.9-5.3,1.3c-2.8-0.9-2.5-5.4-1.6-8.4
			c2.1-7.1-0.1-9.3-4.8-4.8c-3.6,3.5-5.2,10.7-7.6,15.3c-3.9,7.8-7.4,15.8-9.8,24.3C1705.9,666.5,1705.9,666.5,1705.9,666.6
			L1705.9,666.6z"/>
		<path class="st9" d="M1649.8,607.6c-0.2,1.7,0.3,3.4,0.7,5.1c2.5,9.4,5.8,20.4,11.9,27.8c1.5,1.8,3.3,3.6,5.5,3.9
			c3.7,0.5,6.6-3.1,8.7-6.5c4.6-7.4,8.4-15.5,11.2-23.9c0.3-0.9,0.6-1.8,0.5-2.8c-0.4-4.3-7.5-4.5-7.7-8.8c-0.1-2.2,1.9-3.9,3.8-4.3
			c8.5-1.8,13.6-3,16.9-13.3c2-6.2,2.2-15.4-5.2-16.7c-4.3-0.8-8.5,1.8-12.1,4.4c-11.1,8.1-21.9,18.1-31,28.9
			c-1.4,1.7-2.8,3.5-3.2,5.7C1649.9,607.2,1649.9,607.4,1649.8,607.6L1649.8,607.6z"/>
		<path class="st9" d="M1648.8,674.7c0.4,0.6,0.8,1.1,1.4,1.4c0.9,0.4,1.9,0.4,2.8,0.3c3.4-0.3,19.7-1.2,16.6-8.9
			c-0.7-1.8-2.3-3-4-3.8c-4.8-2.2-10.5-1.3-14.6,2.3c-1.4,1.3-2.7,2.9-3,4.9C1647.9,672.2,1648.1,673.6,1648.8,674.7L1648.8,674.7z"
			/>
		<path class="st9" d="M1692.8,372.7c0.9,5.5,0,11.6-3.3,15.7c-2.5,3-6,4.8-9.5,5.9c-7.2,2.4-15.4,2.7-22.4-0.7
			c-6.3-3.1-8.8-10.4-16.7-9.4c-3.9,0.5-7.4,2.4-11,4.1c-0.6,0.3-1.2,0.6-1.8,0.9c-1.5,0.7-3.1,1.4-4.8,1.9
			c-2.5,0.8-5.1,1.3-7.6,1.3c-0.9,0-1.7-0.1-2.6-0.2c0,0,0,0-0.1,0c-1.2-0.1-2.3-0.4-3.5-0.8c-2.3-0.8-4.3-2.4-5.8-4.4
			c-1.5-1.9-2.5-4.2-3.1-6.7c-0.3-1-0.5-1.9-0.7-2.9c-0.1-0.2-0.1-0.5-0.2-0.7c-0.2-0.9-0.3-1.7-0.5-2.6c-1.4-8.2-2-17.5,2.7-23.9
			c4.3-6,11.9-7.6,18.8-7.7c9.1-0.1,18.1,1.7,26.9,4.1c3.6,1,7.3,2.1,11,1.9c3.2-0.2,5.7-1.5,8.2-3.6c1.9-1.7,1.9-3.5,4.9-2.3
			c6.4,2.5,11.1,8.6,14.8,14.9C1689.4,362.2,1691.9,367.2,1692.8,372.7z"/>
		<path class="st9" d="M1605.9,313.8c-0.1,4-2.4,7.7-5.3,10c-2.9,2.4-6.4,3.6-9.9,4.8c-3.2,1.1-6.4,2.2-9.6,3.5
			c-4.7,1.8-9.4,4-13.7,6.8c-0.5,0.3-1,0.7-1.6,1.1c-1.6,1.2-3.1,2.5-4.5,4c-0.9,1.1-1.8,2.2-2.4,3.4c-0.4,0.6-0.7,1.3-0.9,2
			c-0.2,0.2-0.3,0.5-0.3,0.8c-0.2,0.5-0.3,1-0.4,1.6c0,0.1,0,0.1,0,0.2c-0.3,1.6-0.3,3.3-0.1,4.9c0.6,4.2,2.7,8.3,5.3,11.5
			c3.7,4.5,8.4,7.7,12.5,11.8c0.1,0.1,0.2,0.2,0.3,0.3c0.6,0.6,1.2,1.4,1.2,2.3c0,0.4-0.1,0.8-0.3,1.2c-0.5,0.9-1.6,1.4-2.7,1.7
			c-0.3,0.1-0.6,0.1-0.9,0.1c-7.6,0.6-15.2-1.4-22.5-3.9c-2.3-0.8-4.5-1.6-6.7-2.5c-6-2.3-11.8-5.1-17.5-8.3
			c-4.9-2.7-9.9-5.3-13.8-9.6c-0.8-0.8-1.5-1.8-2.2-2.8c-3.9-5.8-6.1-12.9-8.3-19.7c-1.9-6-4.1-12.1-7.5-17.2
			c-3.1-4.5-7.5-6.8-10.8-11c-2.9-3.7-5-8.4-5-13.3c0-6.4,3.5-12.3,7.6-16.8c4.6-5,10.2-8.9,16.5-10.7c4.5-1.2,9.9-1.4,14.6,0.3
			c0.2,0.5,0.6,0.6,1,0.4c0.8,0.3,1.5,0.7,2.3,1.2c5.5,3.5,9.8,9,15.5,12.3c8.1,4.7,19.3,9.9,28.6,7.2c2.5-0.7,4.4-1.9,5.3-4.6
			c0.6-1.7-0.4-3.9,1-5.4c0.9-0.9,2.2-0.8,3.3-0.6c12.1,2.3,24,13.4,29.9,25.3C1605,308.5,1605.9,311.1,1605.9,313.8z"/>
		<path class="st9" d="M1446.3,262.8c-1.6-3.1-3.8-5.7-6.4-7.9c-5.1-4.2-10.8-6.9-17-8.1c-3.1-0.6-6.2-0.4-9.2,0.7
			c-2.9,1-5.9,5-6.2,9.2c-0.2,3.1,0,6.2,0.7,9.2c1.1,4.6,1.1,9.2,0.9,13.8c-0.3,8.7-0.8,17.4,0.1,26c0.4,3.9,1.2,7.8,2.8,10.6
			c1.5,3.4,2.4,6.2,4.6,8.2c1.9,1.8,3.8,3.6,6.2,4.7c5.2,2.4,10.5,3.8,16.1,3.9c4.4,0.1,8.7-0.6,12.9-2.5c1.1-0.5,2.1-1.3,3-2.2
			c1.6-1.7,1.4-4.4-0.4-6.5c-1.9-2.2-4.2-4-6.5-5.7c-1-0.7-1.9-1.6-3-2.3c-3-2.2-3.9-5.5-3.9-9.2c-0.1-4.6,0.7-9,1.6-13.5
			c1.3-6.5,3.1-12.9,4.9-19.3C1448.4,268.8,1447.7,265.7,1446.3,262.8z M1476.5,244.6c-2.6-2.9-6.2-2.3-7.9,1.3
			c-1.3,2.8-1.8,5.8-1.7,8.9c0.1,2.3-0.1,4.7,1.2,6.7c0.4,0.9,0.7,1.9,1.4,2.7c3.5,3.7,7.7,1.9,9.5-2.4c0.9-2.1,1.2-4.5,1-6.8
			C1479.8,251.3,1479.1,247.5,1476.5,244.6z M1651.9,286.4c-4.7-3.4-9.5-6.4-14.6-9.1c-5-2.6-8.1,3.4-7.1,8.6c0.6,3.6,3.2,7,8.5,6.9
			c4.6-0.1,9.3-1.1,13.6-2.9c0.3-0.1,0.7-0.3,0.9-0.6C1653.9,288.4,1652.8,287,1651.9,286.4z M1729.7,368.1
			c-0.3-0.6-0.8-1.2-1.4-1.3c-0.7-0.1-1.2,0.5-1.7,1c-10.1,12.6-7.8,33.6-4.9,48.7c2.9,14.8,8.5,29.2,11.8,44
			c1.2,5.4,2.1,10.9,2.4,16.4c0.2,3.2-1.7,7.1-5,6.6c-1.1-0.2-2.5-0.7-3.2,0.3c-0.5,0.7-0.1,1.7,0.2,2.6c0.7,1.6,8,19.3,8.2,19.2
			c5-2.2,9.8-5,13.7-9c3.9-4.1,6.7-9.6,7-15.6c0.4-7.4-3.2-14.4-3.7-21.9c-0.1-2,0.2-4.4,1.8-5.1c2.1-0.9,4.8,1.6,6.4-0.1
			c0-15.7-4-31.2-10-45.4C1745.6,394.1,1737.7,381,1729.7,368.1z"/>
		<path class="st8" d="M1387.5,381.5c-0.3,0.8-0.8,1.3-1.7,1.5c-2.5,0.6-4.9,0.7-7.4,0.6c-7-0.1-13.9-1.1-20.5-3.9
			c-0.9-0.4-1.8-0.7-2.5-1.4c-1.2-1.3-1.1-2.5,0.7-3.4c0.3-0.1,0.8-0.4,1.3-0.4c2.3-0.2,4.7-0.4,7-0.4c0.3,0,0.7,0,1,0
			c1.9,0.1,3.8,0.3,5.7,0.5c3.1,0.4,6.3,1,9.3,1.9c2.2,0.6,4.3,1.3,6.2,2.8C1387.2,379.9,1387.8,380.6,1387.5,381.5z"/>
		<path class="st8" d="M1364.3,279.2c-0.8,2.7-2.4,5-4,7c-2.3,2.9-4.8,5.8-7.4,8.4c-2.8,2.9-5.9,5.6-9.3,7.7
			c-0.4,0.2-0.8,0.4-1.2,0.6c-0.9,0.6-1.9,0.5-2.6-0.3c-0.7-0.8-0.3-1.8,0-2.7c0.1-0.4,0.3-0.7,0.5-1c0.9-2,2.2-3.6,3.4-5.4
			c3.3-4.8,7.4-8.9,11.6-12.6c1.9-1.7,3.9-3.4,6.3-4.4c0.8-0.3,1.6-0.5,2.2,0C1364.7,277.2,1364.6,278.2,1364.3,279.2z"/>
		<path class="st3" d="M1764.1,458.6c2.1,5.9-1.3,17.5-2.3,23.4c-2.5,14.5-4.1,29.2-9.8,42.6c0,0.1-0.1,0.1-0.1,0.2
			c0-0.1,0-0.1-0.1-0.2c-5.4-18.5-2.1-20.2,6.1-35.2c4.2-7.6,0.8-13.5-0.9-20c-0.5-2.1-0.9-4.4-0.8-6.7
			C1756.7,456.9,1760.9,449.7,1764.1,458.6z"/>
		<path class="st3" d="M1747,503.6c-0.3,0.9-1,1.1-1.3,1.8c-0.2,0.4-0.1,0.9-0.1,1.4c1,6.6,2,13.2,3,19.8c0.1,0.6,0.3,1.3,0.8,1.4
			c0.8,0.3,1.2-0.9,1.4-1.8c0.1-0.7,0.6-1.5,1.1-1.6c0,0.1,0,0.1,0.1,0.2c0-0.1,0.1-0.1,0.1-0.2c0.1,0,0.2,0,0.3,0.1
			c-1.7,5.3-3.4,10.7-5.1,16c0,0,0,0,0,0c-0.5,1.7-1.1,3.4-1.6,5c-0.4,1.1-1.2,2.5-2.1,2c-0.6-0.3-0.8-1.1-0.9-1.8
			c-0.9-5-1.9-10-2.8-15c-0.5-2.6-1-5.2-1.5-7.8c-0.8-4-1.5-8-2.3-12.1c0-0.2-0.1-0.4,0-0.6c0.1-0.3,0.3-0.4,0.5-0.5
			c2.5-1.5,4.8-3.2,7.3-4.7C1745.4,504.7,1745.4,502.2,1747,503.6z"/>
	</g>
</g>
</svg>
