<svg xmlns="http://www.w3.org/2000/svg" xmlns:xlink="http://www.w3.org/1999/xlink" xmlns:lucid="lucid" width="1513" height="2593"><g transform="translate(-18 -8)" lucid:page-tab-id="0_0"><path d="M40 40h405.2v129.07H40z" fill="none"/><use xlink:href="#a" transform="matrix(1,0,0,1,40,40) translate(0 14.4)"/><use xlink:href="#b" transform="matrix(1,0,0,1,40,40) translate(12 14.4)"/><use xlink:href="#c" transform="matrix(1,0,0,1,40,40) translate(75.95 14.4)"/><use xlink:href="#d" transform="matrix(1,0,0,1,40,40) translate(110.95 14.4)"/><use xlink:href="#e" transform="matrix(1,0,0,1,40,40) translate(140.75 14.4)"/><use xlink:href="#f" transform="matrix(1,0,0,1,40,40) translate(196.6 14.4)"/><use xlink:href="#g" transform="matrix(1,0,0,1,40,40) translate(273.5 14.4)"/><use xlink:href="#h" transform="matrix(1,0,0,1,40,40) translate(325.5 14.4)"/><use xlink:href="#i" transform="matrix(1,0,0,1,40,40) translate(0 36)"/><use xlink:href="#j" transform="matrix(1,0,0,1,40,40) translate(0 57.6)"/><use xlink:href="#k" transform="matrix(1,0,0,1,40,40) translate(0 79.20000000000002)"/><use xlink:href="#l" transform="matrix(1,0,0,1,40,40) translate(0 100.80000000000001)"/><use xlink:href="#m" transform="matrix(1,0,0,1,40,40) translate(0 122.4)"/><use xlink:href="#n" transform="matrix(1,0,0,1,40,40) translate(0 144)"/><path d="M970.52 60c44.38 0 80.35 16.7 80.35 37.3 0 20.58-35.97 37.28-80.35 37.28H729.48c-44.38 0-80.35-16.7-80.35-37.3 0-20.6 35.97-37.28 80.35-37.28z" stroke="#000" stroke-width="2" fill="#e5e5e5"/><use xlink:href="#o" transform="matrix(1,0,0,1,654.1304347826087,65) translate(112.3 36.74375)"/><use xlink:href="#p" transform="matrix(1,0,0,1,654.1304347826087,65) translate(154.85 36.74375)"/><use xlink:href="#q" transform="matrix(1,0,0,1,654.1304347826087,65) translate(177.8 36.74375)"/><path d="M970.52 1200c44.38 0 80.35 16.7 80.35 37.3 0 20.58-35.97 37.28-80.35 37.28H729.48c-44.38 0-80.35-16.7-80.35-37.3 0-20.6 35.97-37.28 80.35-37.28z" stroke="#000" stroke-width="2" fill="#e5e5e5"/><use xlink:href="#r" transform="matrix(1,0,0,1,654.1304347826087,1205) translate(80.225 36.74375)"/><use xlink:href="#s" transform="matrix(1,0,0,1,654.1304347826087,1205) translate(161.425 36.74375)"/><use xlink:href="#t" transform="matrix(1,0,0,1,654.1304347826087,1205) translate(204.325 36.74375)"/><use xlink:href="#u" transform="matrix(1,0,0,1,654.1304347826087,1205) translate(243.925 36.74375)"/><path d="M970.52 1042.7c44.38 0 80.35 16.7 80.35 37.3 0 20.6-35.97 37.3-80.35 37.3H729.48c-44.38 0-80.35-16.7-80.35-37.3 0-20.6 35.97-37.3 80.35-37.3z" stroke="#000" stroke-width="2" fill="#e5e5e5"/><use xlink:href="#v" transform="matrix(1,0,0,1,654.1304347826087,1047.7118644067796) translate(59.974999999999994 36.74375)"/><use xlink:href="#w" transform="matrix(1,0,0,1,654.1304347826087,1047.7118644067796) translate(99.57499999999999 36.74375)"/><use xlink:href="#x" transform="matrix(1,0,0,1,654.1304347826087,1047.7118644067796) translate(191.925 36.74375)"/><use xlink:href="#y" transform="matrix(1,0,0,1,654.1304347826087,1047.7118644067796) translate(266.525 36.74375)"/><use xlink:href="#z" transform="matrix(1,0,0,1,654.1304347826087,1047.7118644067796) translate(296.125 36.74375)"/><path d="M970.52 560c44.38 0 80.35 16.7 80.35 37.3 0 20.58-35.97 37.28-80.35 37.28H729.48c-44.38 0-80.35-16.7-80.35-37.3 0-20.6 35.97-37.28 80.35-37.28z" stroke="#000" stroke-width="2" fill="#e5e5e5"/><use xlink:href="#A" transform="matrix(1,0,0,1,654.1304347826087,565) translate(94.24999999999997 36.74375)"/><use xlink:href="#B" transform="matrix(1,0,0,1,654.1304347826087,565) translate(155.14999999999998 36.74375)"/><use xlink:href="#C" transform="matrix(1,0,0,1,654.1304347826087,565) translate(216.95 36.74375)"/><use xlink:href="#D" transform="matrix(1,0,0,1,654.1304347826087,565) translate(246.9 36.74375)"/><path d="M960.52 2100c44.38 0 80.35 16.7 80.35 37.3 0 20.58-35.97 37.28-80.35 37.28H719.48c-44.38 0-80.35-16.7-80.35-37.3 0-20.6 35.97-37.28 80.35-37.28z" stroke="#000" stroke-width="2" fill="#e5e5e5"/><use xlink:href="#A" transform="matrix(1,0,0,1,644.1304347826087,2105) translate(129.15 36.74375)"/><use xlink:href="#E" transform="matrix(1,0,0,1,644.1304347826087,2105) translate(190.05 36.74375)"/><path d="M970.52 1400c44.38 0 80.35 16.7 80.35 37.3 0 20.58-35.97 37.28-80.35 37.28H729.48c-44.38 0-80.35-16.7-80.35-37.3 0-20.6 35.97-37.28 80.35-37.28z" stroke="#000" stroke-width="2" fill="#e5e5e5"/><use xlink:href="#A" transform="matrix(1,0,0,1,654.1304347826087,1405) translate(111.82499999999999 36.74375)"/><use xlink:href="#t" transform="matrix(1,0,0,1,654.1304347826087,1405) translate(172.725 36.74375)"/><use xlink:href="#u" transform="matrix(1,0,0,1,654.1304347826087,1405) translate(212.325 36.74375)"/><path d="M960.52 1785.42c44.38 0 80.35 16.7 80.35 37.3 0 20.6-35.97 37.28-80.35 37.28H719.48c-44.38 0-80.35-16.7-80.35-37.3 0-20.58 35.97-37.28 80.35-37.28z" stroke="#000" stroke-width="2" fill="#e5e5e5"/><use xlink:href="#F" transform="matrix(1,0,0,1,644.1304347826087,1790.4237288135594) translate(89.74999999999999 36.74375)"/><use xlink:href="#G" transform="matrix(1,0,0,1,644.1304347826087,1790.4237288135594) translate(153.6 36.74375)"/><use xlink:href="#H" transform="matrix(1,0,0,1,644.1304347826087,1790.4237288135594) translate(236.45 36.74375)"/><path d="M970.52 400c44.38 0 80.35 16.7 80.35 37.3 0 20.58-35.97 37.28-80.35 37.28H729.48c-44.38 0-80.35-16.7-80.35-37.3 0-20.6 35.97-37.28 80.35-37.28z" stroke="#000" stroke-width="2" fill="#e5e5e5"/><use xlink:href="#I" transform="matrix(1,0,0,1,654.1304347826087,405) translate(100.19999999999999 36.74375)"/><use xlink:href="#J" transform="matrix(1,0,0,1,654.1304347826087,405) translate(194.05 36.74375)"/><use xlink:href="#D" transform="matrix(1,0,0,1,654.1304347826087,405) translate(240.95 36.74375)"/><path d="M970.52 720c44.38 0 80.35 16.7 80.35 37.3 0 20.58-35.97 37.28-80.35 37.28H729.48c-44.38 0-80.35-16.7-80.35-37.3 0-20.6 35.97-37.28 80.35-37.28z" stroke="#000" stroke-width="2" fill="#e5e5e5"/><use xlink:href="#A" transform="matrix(1,0,0,1,654.1304347826087,725) translate(45.349999999999966 36.74375)"/><use xlink:href="#B" transform="matrix(1,0,0,1,654.1304347826087,725) translate(106.24999999999997 36.74375)"/><use xlink:href="#C" transform="matrix(1,0,0,1,654.1304347826087,725) translate(168.04999999999998 36.74375)"/><use xlink:href="#G" transform="matrix(1,0,0,1,654.1304347826087,725) translate(198 36.74375)"/><use xlink:href="#H" transform="matrix(1,0,0,1,654.1304347826087,725) translate(280.85 36.74375)"/><path d="M960.52 2420c44.38 0 80.35 16.7 80.35 37.3 0 20.58-35.97 37.28-80.35 37.28H719.48c-44.38 0-80.35-16.7-80.35-37.3 0-20.6 35.97-37.28 80.35-37.28z" stroke="#000" stroke-width="2" fill="#e5e5e5"/><use xlink:href="#K" transform="matrix(1,0,0,1,644.1304347826087,2425) translate(98.85 36.74375)"/><use xlink:href="#L" transform="matrix(1,0,0,1,644.1304347826087,2425) translate(152.45 36.74375)"/><use xlink:href="#M" transform="matrix(1,0,0,1,644.1304347826087,2425) translate(208.3 36.74375)"/><path d="M850 217.3l90 60-90 60-90-60z" stroke="#000" stroke-width="2" fill="#d1bcd2"/><use xlink:href="#N" transform="matrix(1,0,0,1,765,222.28813559322032) translate(32.05499999999999 49.0875)"/><use xlink:href="#O" transform="matrix(1,0,0,1,765,222.28813559322032) translate(70.005 49.0875)"/><use xlink:href="#P" transform="matrix(1,0,0,1,765,222.28813559322032) translate(57.53 70.6875)"/><path d="M719.2 367.14H851v13.36h-2v-11.36H717.2v-44.2h2zm38-88.85h-38v25.03h-2V276.3h40z" fill="#7ab648"/><path d="M758.2 277.3l1.5 1h-2.53v-2h2.53zM850 395.76l-4.64-14.26h9.28z" fill="#7ab648"/><path d="M850 399l-6-18.5h12zm-3.26-16.5l3.26 10.03 3.26-10.03z" fill="#7ab648"/><use xlink:href="#Q" transform="matrix(1,0,0,1,703.522224362268,303.3314459079748) translate(0 14.4)"/><path d="M962.27 278.3H942.8v-2h19.47zm129.6 0H985.22v-2h104.65V20H851v20.5h-2V18h242.87z" fill="#c92d39"/><path d="M942.83 278.3h-2.53l1.5-1-1.5-1h2.53zM850 55.76l-4.64-14.26h9.28z" fill="#c92d39"/><path d="M850 59l-6-18.5h12zm-3.26-16.5L850 52.53l3.26-10.03z" fill="#c92d39"/><use xlink:href="#R" transform="matrix(1,0,0,1,962.2708571355097,266.4881355932203) translate(0 14.4)"/><path d="M851 197.58h-2v-10.95h2zm0-32.55h-2v-28.45h2z" fill="#ef8d22"/><path d="M851 136.6h-2v-1.02h2zM850 212.85l-4.64-14.27h9.28z" fill="#ef8d22"/><path d="M850 216.1l-6-18.52h12zm-3.26-16.52L850 209.6l3.26-10.02z" fill="#ef8d22"/><use xlink:href="#S" transform="matrix(1,0,0,1,796.0999998373097,165.0312781382629) translate(0 14.4)"/><use xlink:href="#T" transform="matrix(1,0,0,1,796.0999998373097,165.0312781382629) translate(100.8 14.4)"/><path d="M851 540.5h-2v-18.25h2zm0-39.85h-2v-24.07h2z" fill="#3aa6dd"/><path d="M851 476.6h-2v-1.02h2zM850 555.76l-4.64-14.26h9.28z" fill="#3aa6dd"/><path d="M850 559l-6-18.5h12zm-3.26-16.5l3.26 10.03 3.26-10.03z" fill="#3aa6dd"/><use xlink:href="#U" transform="matrix(1,0,0,1,817.8999998373097,500.6510624956727) translate(0 14.4)"/><path d="M851 700.5h-2v-18.58h2zm0-40.18h-2v-23.74h2z" fill="#3aa6dd"/><path d="M851 636.6h-2v-1.02h2zM850 715.76l-4.64-14.26h9.28z" fill="#3aa6dd"/><path d="M850 719l-6-18.5h12zm-3.26-16.5l3.26 10.03 3.26-10.03z" fill="#3aa6dd"/><use xlink:href="#U" transform="matrix(1,0,0,1,817.8999998373097,660.3189424597454) translate(0 14.4)"/><path d="M850 860l80 60-80 60-80-60z" stroke="#000" stroke-width="2" fill="#d1bcd2"/><use xlink:href="#V" transform="matrix(1,0,0,1,775,865) translate(19.105000000000004 59.0875)"/><use xlink:href="#W" transform="matrix(1,0,0,1,775,865) translate(64.955 59.0875)"/><use xlink:href="#X" transform="matrix(1,0,0,1,775,865) translate(95.905 59.0875)"/><path d="M851 840.25h-2v-2.3h2zm0-23.9h-2V796.6h2zM851 796.6h-2v-1.02h2zM850 855.5l-4.64-14.25h9.28z" fill="#3aa6dd"/><path d="M850 858.75l-6-18.5h12zm-3.26-16.5l3.26 10.03 3.26-10.03z" fill="#3aa6dd"/><use xlink:href="#U" transform="matrix(1,0,0,1,817.9,816.3631355) translate(0 14.4)"/><path d="M949.36 1011.86H851v11.35h-2v-13.34h100.36zm23.3 0h-.35v-11.8h-1.63V921h-38v-2h40z" fill="#c92d39"/><path d="M932.7 921h-2.37l1.34-1-1.34-1h2.36zM850 1038.48l-4.64-14.27h9.28z" fill="#c92d39"/><path d="M850 1041.7l-6-18.5h12zm-3.26-16.5l3.26 10.04 3.26-10.03z" fill="#c92d39"/><use xlink:href="#R" transform="matrix(1,0,0,1,949.3583333333332,1000.0559322033898) translate(0 14.4)"/><path d="M678.18 921H341v838h500v6.92h-2V1761H339V919h339.18zm89.15 0h-59.8v-2h59.8z" fill="#7ab648"/><path d="M768.33 920l1.34 1h-2.36v-2h2.37zM840 1781.2l-4.64-14.28h9.28z" fill="#7ab648"/><path d="M840 1784.42l-6-18.5h12zm-3.26-16.5l3.26 10.03 3.26-10.03z" fill="#7ab648"/><use xlink:href="#Q" transform="matrix(1,0,0,1,678.1764273736919,909.2) translate(0 14.4)"/><path d="M851 1180.5h-2v-11.06h2zm0-32.66h-2v-28.55h2z" fill="#3aa6dd"/><path d="M851 1119.3h-2v-1h2zM850 1195.76l-4.64-14.26h9.28z" fill="#3aa6dd"/><path d="M850 1199l-6-18.5h12zm-3.26-16.5l3.26 10.03 3.26-10.03z" fill="#3aa6dd"/><use xlink:href="#U" transform="matrix(1,0,0,1,817.8999998373097,1147.8440677033898) translate(0 14.4)"/><path d="M746.47 1380.5h-2v-32.4h2zm0-54h-2v-49.92h2z" fill="#3aa6dd"/><path d="M746.47 1276.6h-2v-1.02h2zM745.47 1395.76l-4.64-14.26h9.27z" fill="#3aa6dd"/><path d="M745.47 1399l-6.02-18.5h12.03zm-3.26-16.5l3.27 10.03 3.26-10.03z" fill="#3aa6dd"/><use xlink:href="#U" transform="matrix(1,0,0,1,713.3666666666666,1326.4881355) translate(0 14.4)"/><path d="M923.8 1380.5h-2v-32.4h2zm0-54h-2v-49.92h2z" fill="#ef8d22"/><path d="M923.8 1276.6h-2v-1.02h2zM922.8 1395.76l-4.64-14.26h9.28z" fill="#ef8d22"/><path d="M922.8 1399l-6-18.5h12zm-3.26-16.5l3.26 10.03 3.26-10.03z" fill="#ef8d22"/><use xlink:href="#S" transform="matrix(1,0,0,1,865.3999999999999,1326.4881355) translate(0 14.4)"/><use xlink:href="#Y" transform="matrix(1,0,0,1,865.3999999999999,1326.4881355) translate(100.8 14.4)"/><path d="M40 200h405.2v129.07H40z" fill="none"/><use xlink:href="#Z" transform="matrix(1,0,0,1,40,200) translate(0 14.4)"/><use xlink:href="#aa" transform="matrix(1,0,0,1,40,200) translate(19 14.4)"/><use xlink:href="#ab" transform="matrix(1,0,0,1,40,200) translate(60.95 14.4)"/><use xlink:href="#ac" transform="matrix(1,0,0,1,40,200) translate(75.95 14.4)"/><use xlink:href="#d" transform="matrix(1,0,0,1,40,200) translate(182.4 14.4)"/><use xlink:href="#e" transform="matrix(1,0,0,1,40,200) translate(212.20000000000002 14.4)"/><use xlink:href="#ad" transform="matrix(1,0,0,1,40,200) translate(268.05 14.4)"/><use xlink:href="#ae" transform="matrix(1,0,0,1,40,200) translate(298.05 14.4)"/><use xlink:href="#af" transform="matrix(1,0,0,1,40,200) translate(337.05 14.4)"/><use xlink:href="#m" transform="matrix(1,0,0,1,40,200) translate(0 36)"/><use xlink:href="#n" transform="matrix(1,0,0,1,40,200) translate(0 57.6)"/><path d="M840 1540l80 60-80 60-80-60z" stroke="#000" stroke-width="2" fill="#d1bcd2"/><use xlink:href="#ag" transform="matrix(1,0,0,1,765,1545) translate(38.53 48.775)"/><use xlink:href="#ah" transform="matrix(1,0,0,1,765,1545) translate(57.53 48.775)"/><use xlink:href="#ai" transform="matrix(1,0,0,1,765,1545) translate(27.054999999999996 70.375)"/><use xlink:href="#aj" transform="matrix(1,0,0,1,765,1545) translate(78.005 70.375)"/><path d="M840 1920l80 60-80 60-80-60z" stroke="#000" stroke-width="2" fill="#d1bcd2"/><g><use xlink:href="#ag" transform="matrix(1,0,0,1,765,1925) translate(45.505 41.9)"/><use xlink:href="#ak" transform="matrix(1,0,0,1,765,1925) translate(64.505 41.9)"/><use xlink:href="#al" transform="matrix(1,0,0,1,765,1925) translate(36.05499999999999 63.5)"/><use xlink:href="#aj" transform="matrix(1,0,0,1,765,1925) translate(52.529999999999994 85.10000000000001)"/></g><path d="M840 2234.58l90 70-90 70-90-70z" stroke="#000" stroke-width="2" fill="#d1bcd2"/><g><use xlink:href="#am" transform="matrix(1,0,0,1,755,2239.576271186441) translate(48.05499999999999 46.9)"/><use xlink:href="#an" transform="matrix(1,0,0,1,755,2239.576271186441) translate(81.005 46.9)"/><use xlink:href="#ao" transform="matrix(1,0,0,1,755,2239.576271186441) translate(28.104999999999997 68.5)"/><use xlink:href="#ap" transform="matrix(1,0,0,1,755,2239.576271186441) translate(58.955 68.5)"/><use xlink:href="#aq" transform="matrix(1,0,0,1,755,2239.576271186441) translate(97.955 68.5)"/><use xlink:href="#ar" transform="matrix(1,0,0,1,755,2239.576271186441) translate(126.905 68.5)"/><use xlink:href="#as" transform="matrix(1,0,0,1,755,2239.576271186441) translate(41.080000000000005 90.10000000000001)"/><use xlink:href="#at" transform="matrix(1,0,0,1,755,2239.576271186441) translate(118.92999999999999 90.10000000000001)"/></g><path d="M837.13 1523.15h-2v-3.74h2zm0-25.34h-2v-21.22h2z" fill="#3aa6dd"/><path d="M837.13 1476.6h-2v-1.02h2zM836.13 1538.4l-4.63-14.25h9.27z" fill="#3aa6dd"/><path d="M836.13 1541.65l-6-18.5h12.02zm-3.26-16.5l3.26 10.03 3.26-10.03z" fill="#3aa6dd"/><g><use xlink:href="#U" transform="matrix(1,0,0,1,804.0333333333332,1497.8131355) translate(0 14.4)"/></g><path d="M719.33 1759H841v6.92h-2V1761H717.33v-96.3h2zm38-158h-38v42.1h-2V1599h40z" fill="#7ab648"/><path d="M758.33 1600l1.34 1h-2.36v-2h2.37zM840 1781.2l-4.64-14.28h9.28z" fill="#7ab648"/><path d="M840 1784.42l-6-18.5h12zm-3.26-16.5l3.26 10.03 3.26-10.03z" fill="#7ab648"/><g><use xlink:href="#Q" transform="matrix(1,0,0,1,703.6583333333334,1643.091353807391) translate(0 14.4)"/></g><path d="M939.2 1601h-16.53v-2h16.54zm153.67 0h-130.7v-2h128.7v-360.7h-20.5v-2h22.5z" fill="#c92d39"/><path d="M922.7 1601h-2.37l1.34-1-1.34-1h2.36zM1069.37 1241.92l-14.26-4.63 14.27-4.65z" fill="#c92d39"/><path d="M1070.37 1243.3l-18.5-6 18.5-6.02zm-12.03-6l10.03 3.25v-6.52z" fill="#c92d39"/><g><use xlink:href="#R" transform="matrix(1,0,0,1,939.2101306825297,1589.2) translate(0 14.4)"/></g><path d="M841 1879.08h-2V1862h2z" fill="#3aa6dd"/><path d="M841 1862.03h-2V1861h2zM840 1915.5l-4.64-14.25h9.28z" fill="#3aa6dd"/><path d="M840 1918.75l-5.87-18.08h11.74zm-3.26-16.5l3.26 10.03 3.26-10.03z" fill="#3aa6dd"/><g><use xlink:href="#U" transform="matrix(1,0,0,1,807.8999998373097,1879.0749999677885) translate(0 14.4)"/></g><path d="M719.33 2068.5H841v12h-2v-10H717.33v-31.96h2zm38-87.5h-38v35.94h-2V1979h40z" fill="#7ab648"/><path d="M758.33 1980l1.34 1h-2.36v-2h2.37zM840 2095.76l-4.64-14.26h9.28z" fill="#7ab648"/><path d="M840 2099l-6-18.5h12zm-3.26-16.5l3.26 10.03 3.26-10.03z" fill="#7ab648"/><g><use xlink:href="#Q" transform="matrix(1,0,0,1,703.6583333333334,2016.942374166162) translate(0 14.4)"/></g><path d="M958.27 1981h-35.6v-2h35.6zm332.73 0H981.22v-2H1289V758.3h-218.63v-2H1291z" fill="#c92d39"/><path d="M922.7 1981h-2.37l1.34-1-1.34-1h2.36zM1069.37 761.92l-14.26-4.63 14.27-4.65z" fill="#c92d39"/><path d="M1070.37 763.3l-18.5-6 18.5-6.02zm-12.03-6l10.03 3.25v-6.52z" fill="#c92d39"/><g><use xlink:href="#R" transform="matrix(1,0,0,1,958.273556075509,1969.2) translate(0 14.4)"/></g><path d="M841 2193.64h-2v-17.06h2z" fill="#3aa6dd"/><path d="M841 2176.6h-2v-1.02h2zM840 2230.07l-4.64-14.26h9.28z" fill="#3aa6dd"/><path d="M840 2233.3l-5.87-18.06h11.74zm-3.26-16.5l3.26 10.04 3.26-10.03z" fill="#3aa6dd"/><g><use xlink:href="#U" transform="matrix(1,0,0,1,807.8999998373097,2193.642840364767) translate(0 14.4)"/></g><path d="M972.63 2397.8H841v2.7h-2v-4.7h131.63v-26.72h2zm0-50.32h-2v-41.9h-38v-2h40z" fill="#c92d39"/><path d="M932.65 2305.58h-2.3l1.28-1-1.3-1h2.32zM840 2415.76l-4.64-14.26h9.28z" fill="#c92d39"/><path d="M840 2419l-6-18.5h12zm-3.26-16.5l3.26 10.03 3.26-10.03z" fill="#c92d39"/><g><use xlink:href="#R" transform="matrix(1,0,0,1,960.1538220358559,2347.477242239837) translate(0 14.4)"/></g><path d="M599.13 2303.58h148.24v2H597.13v-18.73h2zm20.5-165.3h-20.5v126.97h-2V2136.3h22.5z" fill="#7ab648"/><path d="M748.37 2304.58l1.3 1h-2.32v-2h2.3zM634.9 2137.3l-14.27 4.62v-9.27z" fill="#7ab648"/><path d="M638.13 2137.3l-18.5 6v-12.02zm-16.5 3.25l10.03-3.26-10.03-3.27z" fill="#7ab648"/><g><use xlink:href="#Q" transform="matrix(1,0,0,1,583.4554064572336,2265.2525891432856) translate(0 14.4)"/></g><path d="M1521 2591H839v-57.74h2V2589h678V188.42H868v20.5h-2v-22.3h37.9v-.2H1521zm-680-79.34h-2v-15.08h2z" fill="#3aa6dd"/><path d="M841 2496.6h-2v-1.02h2zM867 224.2l-4.63-14.28h9.27z" fill="#3aa6dd"/><path d="M867 227.42l-6-18.5H873zm-3.25-16.5l3.26 10.03 3.27-10.03z" fill="#3aa6dd"/><g><use xlink:href="#U" transform="matrix(1,0,0,1,807.8999998373097,2511.6558717377357) translate(0 14.4)"/></g><defs><path d="M80-196l47-18 7 23-49 13 32 44-20 13-27-46-27 45-21-12 33-44-49-13 8-23 47 19-2-53h23" id="au"/><use transform="matrix(0.05,0,0,0.05,0,0)" xlink:href="#au" id="a"/><path d="M205 0l-28-72H64L36 0H1l101-248h38L239 0h-34zm-38-99l-47-123c-12 45-31 82-46 123h93" id="av"/><path d="M96-169c-40 0-48 33-48 73s9 75 48 75c24 0 41-14 43-38l32 2c-6 37-31 61-74 61-59 0-76-41-82-99-10-93 101-131 147-64 4 7 5 14 7 22l-32 3c-4-21-16-35-41-35" id="aw"/><path d="M59-47c-2 24 18 29 38 22v24C64 9 27 4 27-40v-127H5v-23h24l9-43h21v43h35v23H59v120" id="ax"/><path d="M24-231v-30h32v30H24zM24 0v-190h32V0H24" id="ay"/><path d="M100-194c62-1 85 37 85 99 1 63-27 99-86 99S16-35 15-95c0-66 28-99 85-99zM99-20c44 1 53-31 53-75 0-43-8-75-51-75s-53 32-53 75 10 74 51 75" id="az"/><path d="M117-194c89-4 53 116 60 194h-32v-121c0-31-8-49-39-48C34-167 62-67 57 0H25l-1-190h30c1 10-1 24 2 32 11-22 29-35 61-36" id="aA"/><path d="M135-143c-3-34-86-38-87 0 15 53 115 12 119 90S17 21 10-45l28-5c4 36 97 45 98 0-10-56-113-15-118-90-4-57 82-63 122-42 12 7 21 19 24 35" id="aB"/><g id="b"><use transform="matrix(0.05,0,0,0.05,0,0)" xlink:href="#av"/><use transform="matrix(0.05,0,0,0.05,12,0)" xlink:href="#aw"/><use transform="matrix(0.05,0,0,0.05,21,0)" xlink:href="#ax"/><use transform="matrix(0.05,0,0,0.05,26,0)" xlink:href="#ay"/><use transform="matrix(0.05,0,0,0.05,29.950000000000003,0)" xlink:href="#az"/><use transform="matrix(0.05,0,0,0.05,39.95,0)" xlink:href="#aA"/><use transform="matrix(0.05,0,0,0.05,49.95,0)" xlink:href="#aB"/></g><path d="M106-169C34-169 62-67 57 0H25v-261h32l-1 103c12-21 28-36 61-36 89 0 53 116 60 194h-32v-121c2-32-8-49-39-48" id="aC"/><path d="M141-36C126-15 110 5 73 4 37 3 15-17 15-53c-1-64 63-63 125-63 3-35-9-54-41-54-24 1-41 7-42 31l-33-3c5-37 33-52 76-52 45 0 72 20 72 64v82c-1 20 7 32 28 27v20c-31 9-61-2-59-35zM48-53c0 20 12 33 32 33 41-3 63-29 60-74-43 2-92-5-92 41" id="aD"/><g id="c"><use transform="matrix(0.05,0,0,0.05,0,0)" xlink:href="#ax"/><use transform="matrix(0.05,0,0,0.05,5,0)" xlink:href="#aC"/><use transform="matrix(0.05,0,0,0.05,15,0)" xlink:href="#aD"/><use transform="matrix(0.05,0,0,0.05,25,0)" xlink:href="#ax"/></g><path d="M206 0h-36l-40-164L89 0H53L-1-190h32L70-26l43-164h34l41 164 42-164h31" id="aE"/><path d="M24 0v-261h32V0H24" id="aF"/><g id="d"><use transform="matrix(0.05,0,0,0.05,0,0)" xlink:href="#aE"/><use transform="matrix(0.05,0,0,0.05,12.950000000000001,0)" xlink:href="#ay"/><use transform="matrix(0.05,0,0,0.05,16.900000000000002,0)" xlink:href="#aF"/><use transform="matrix(0.05,0,0,0.05,20.85,0)" xlink:href="#aF"/></g><path d="M114-163C36-179 61-72 57 0H25l-1-190h30c1 12-1 29 2 39 6-27 23-49 58-41v29" id="aG"/><path d="M177-190C167-65 218 103 67 71c-23-6-38-20-44-43l32-5c15 47 100 32 89-28v-30C133-14 115 1 83 1 29 1 15-40 15-95c0-56 16-97 71-98 29-1 48 16 59 35 1-10 0-23 2-32h30zM94-22c36 0 50-32 50-73 0-42-14-75-50-75-39 0-46 34-46 75s6 73 46 73" id="aH"/><path d="M100-194c63 0 86 42 84 106H49c0 40 14 67 53 68 26 1 43-12 49-29l28 8c-11 28-37 45-77 45C44 4 14-33 15-96c1-61 26-98 85-98zm52 81c6-60-76-77-97-28-3 7-6 17-6 28h103" id="aI"/><g id="e"><use transform="matrix(0.05,0,0,0.05,0,0)" xlink:href="#ax"/><use transform="matrix(0.05,0,0,0.05,5,0)" xlink:href="#aG"/><use transform="matrix(0.05,0,0,0.05,10.95,0)" xlink:href="#ay"/><use transform="matrix(0.05,0,0,0.05,14.899999999999999,0)" xlink:href="#aH"/><use transform="matrix(0.05,0,0,0.05,24.9,0)" xlink:href="#aH"/><use transform="matrix(0.05,0,0,0.05,34.9,0)" xlink:href="#aI"/><use transform="matrix(0.05,0,0,0.05,44.9,0)" xlink:href="#aG"/></g><path d="M85-194c31 0 48 13 60 33l-1-100h32l1 261h-30c-2-10 0-23-3-31C134-8 116 4 85 4 32 4 16-35 15-94c0-66 23-100 70-100zm9 24c-40 0-46 34-46 75 0 40 6 74 45 74 42 0 51-32 51-76 0-42-9-74-50-73" id="aJ"/><g id="f"><use transform="matrix(0.05,0,0,0.05,0,0)" xlink:href="#aw"/><use transform="matrix(0.05,0,0,0.05,9,0)" xlink:href="#az"/><use transform="matrix(0.05,0,0,0.05,19,0)" xlink:href="#aA"/><use transform="matrix(0.05,0,0,0.05,29,0)" xlink:href="#aJ"/><use transform="matrix(0.05,0,0,0.05,39,0)" xlink:href="#ay"/><use transform="matrix(0.05,0,0,0.05,42.95,0)" xlink:href="#ax"/><use transform="matrix(0.05,0,0,0.05,47.95,0)" xlink:href="#ay"/><use transform="matrix(0.05,0,0,0.05,51.900000000000006,0)" xlink:href="#az"/><use transform="matrix(0.05,0,0,0.05,61.900000000000006,0)" xlink:href="#aA"/></g><path d="M143 0L79-87 56-68V0H24v-261h32v163l83-92h37l-77 82L181 0h-38" id="aK"/><g id="g"><use transform="matrix(0.05,0,0,0.05,0,0)" xlink:href="#aw"/><use transform="matrix(0.05,0,0,0.05,9,0)" xlink:href="#aC"/><use transform="matrix(0.05,0,0,0.05,19,0)" xlink:href="#aI"/><use transform="matrix(0.05,0,0,0.05,29,0)" xlink:href="#aw"/><use transform="matrix(0.05,0,0,0.05,38,0)" xlink:href="#aK"/></g><path d="M33-154v-36h34v36H33zM33 0v-36h34V0H33" id="aL"/><g id="h"><use transform="matrix(0.05,0,0,0.05,0,0)" xlink:href="#aD"/><use transform="matrix(0.05,0,0,0.05,10,0)" xlink:href="#aG"/><use transform="matrix(0.05,0,0,0.05,15.949999999999998,0)" xlink:href="#aI"/><use transform="matrix(0.05,0,0,0.05,25.950000000000003,0)" xlink:href="#aL"/></g><path d="M153-248C145-148 188 4 80 4 36 3 13-21 6-62l32-5c4 25 16 42 43 43 27 0 39-20 39-49v-147H72v-28h81" id="aM"/><path d="M140-251c81 0 123 46 123 126C263-46 219 4 140 4 59 4 17-45 17-125s42-126 123-126zm0 227c63 0 89-41 89-101s-29-99-89-99c-61 0-89 39-89 99S79-25 140-24" id="aN"/><path d="M33 0v-248h34V0H33" id="aO"/><path d="M190 0L58-211 59 0H30v-248h39L202-35l-2-213h31V0h-41" id="aP"/><path d="M143 4C61 4 22-44 18-125c-5-107 100-154 193-111 17 8 29 25 37 43l-32 9c-13-25-37-40-76-40-61 0-88 39-88 99 0 61 29 100 91 101 35 0 62-11 79-27v-45h-74v-28h105v86C228-13 192 4 143 4" id="aQ"/><path d="M240 0l2-218c-23 76-54 145-80 218h-23L58-218 59 0H30v-248h44l77 211c21-75 51-140 76-211h43V0h-30" id="aR"/><path d="M30 0v-248h187v28H63v79h144v27H63v87h162V0H30" id="aS"/><g id="i"><use transform="matrix(0.05,0,0,0.05,0,0)" xlink:href="#aM"/><use transform="matrix(0.05,0,0,0.05,9,0)" xlink:href="#aN"/><use transform="matrix(0.05,0,0,0.05,23,0)" xlink:href="#aO"/><use transform="matrix(0.05,0,0,0.05,28,0)" xlink:href="#aP"/><use transform="matrix(0.05,0,0,0.05,40.95,0)" xlink:href="#aQ"/><use transform="matrix(0.05,0,0,0.05,54.95,0)" xlink:href="#av"/><use transform="matrix(0.05,0,0,0.05,66.95,0)" xlink:href="#aR"/><use transform="matrix(0.05,0,0,0.05,81.9,0)" xlink:href="#aS"/></g><path d="M127-220V0H93v-220H8v-28h204v28h-85" id="aT"/><path d="M160-131c35 5 61 23 61 61C221 17 115-2 30 0v-248c76 3 177-17 177 60 0 33-19 50-47 57zm-97-11c50-1 110 9 110-42 0-47-63-36-110-37v79zm0 115c55-2 124 14 124-45 0-56-70-42-124-44v89" id="aU"/><path d="M30 0v-248h33v221h125V0H30" id="aV"/><g id="j"><use transform="matrix(0.05,0,0,0.05,0,0)" xlink:href="#aM"/><use transform="matrix(0.05,0,0,0.05,9,0)" xlink:href="#aN"/><use transform="matrix(0.05,0,0,0.05,23,0)" xlink:href="#aO"/><use transform="matrix(0.05,0,0,0.05,28,0)" xlink:href="#aP"/><use transform="matrix(0.05,0,0,0.05,40.95,0)" xlink:href="#aT"/><use transform="matrix(0.05,0,0,0.05,50.550000000000004,0)" xlink:href="#av"/><use transform="matrix(0.05,0,0,0.05,62.550000000000004,0)" xlink:href="#aU"/><use transform="matrix(0.05,0,0,0.05,74.55000000000001,0)" xlink:href="#aV"/><use transform="matrix(0.05,0,0,0.05,84.55000000000001,0)" xlink:href="#aS"/></g><path d="M30-248c118-7 216 8 213 122C240-48 200 0 122 0H30v-248zM63-27c89 8 146-16 146-99s-60-101-146-95v194" id="aW"/><g id="k"><use transform="matrix(0.05,0,0,0.05,0,0)" xlink:href="#aM"/><use transform="matrix(0.05,0,0,0.05,9,0)" xlink:href="#aN"/><use transform="matrix(0.05,0,0,0.05,23,0)" xlink:href="#aO"/><use transform="matrix(0.05,0,0,0.05,28,0)" xlink:href="#aP"/><use transform="matrix(0.05,0,0,0.05,40.95,0)" xlink:href="#aQ"/><use transform="matrix(0.05,0,0,0.05,54.95,0)" xlink:href="#av"/><use transform="matrix(0.05,0,0,0.05,66.95,0)" xlink:href="#aR"/><use transform="matrix(0.05,0,0,0.05,81.9,0)" xlink:href="#aS"/><use transform="matrix(0.05,0,0,0.05,93.9,0)" xlink:href="#av"/><use transform="matrix(0.05,0,0,0.05,105.9,0)" xlink:href="#aP"/><use transform="matrix(0.05,0,0,0.05,118.85000000000001,0)" xlink:href="#aW"/><use transform="matrix(0.05,0,0,0.05,131.8,0)" xlink:href="#aM"/><use transform="matrix(0.05,0,0,0.05,140.8,0)" xlink:href="#aN"/><use transform="matrix(0.05,0,0,0.05,154.8,0)" xlink:href="#aO"/><use transform="matrix(0.05,0,0,0.05,159.8,0)" xlink:href="#aP"/><use transform="matrix(0.05,0,0,0.05,172.75,0)" xlink:href="#aT"/><use transform="matrix(0.05,0,0,0.05,182.35,0)" xlink:href="#av"/><use transform="matrix(0.05,0,0,0.05,194.35,0)" xlink:href="#aU"/><use transform="matrix(0.05,0,0,0.05,206.35000000000002,0)" xlink:href="#aV"/><use transform="matrix(0.05,0,0,0.05,216.35000000000002,0)" xlink:href="#aS"/></g><path d="M185-189c-5-48-123-54-124 2 14 75 158 14 163 119 3 78-121 87-175 55-17-10-28-26-33-46l33-7c5 56 141 63 141-1 0-78-155-14-162-118-5-82 145-84 179-34 5 7 8 16 11 25" id="aX"/><g id="l"><use transform="matrix(0.05,0,0,0.05,0,0)" xlink:href="#aX"/><use transform="matrix(0.05,0,0,0.05,12,0)" xlink:href="#aO"/><use transform="matrix(0.05,0,0,0.05,17,0)" xlink:href="#aT"/><use transform="matrix(0.05,0,0,0.05,27.950000000000003,0)" xlink:href="#aO"/><use transform="matrix(0.05,0,0,0.05,32.95,0)" xlink:href="#aP"/></g><g id="o"><use transform="matrix(0.05,0,0,0.05,0,0)" xlink:href="#aP"/><use transform="matrix(0.05,0,0,0.05,12.950000000000001,0)" xlink:href="#aN"/><use transform="matrix(0.05,0,0,0.05,26.950000000000003,0)" xlink:href="#aT"/></g><g id="p"><use transform="matrix(0.05,0,0,0.05,0,0)" xlink:href="#aO"/><use transform="matrix(0.05,0,0,0.05,5,0)" xlink:href="#aP"/></g><path d="M30-248c87 1 191-15 191 75 0 78-77 80-158 76V0H30v-248zm33 125c57 0 124 11 124-50 0-59-68-47-124-48v98" id="aY"/><path d="M233-177c-1 41-23 64-60 70L243 0h-38l-65-103H63V0H30v-248c88 3 205-21 203 71zM63-129c60-2 137 13 137-47 0-61-80-42-137-45v92" id="aZ"/><g id="q"><use transform="matrix(0.05,0,0,0.05,0,0)" xlink:href="#aY"/><use transform="matrix(0.05,0,0,0.05,12,0)" xlink:href="#aZ"/><use transform="matrix(0.05,0,0,0.05,24.950000000000003,0)" xlink:href="#aN"/><use transform="matrix(0.05,0,0,0.05,38.95,0)" xlink:href="#aQ"/><use transform="matrix(0.05,0,0,0.05,52.95,0)" xlink:href="#aZ"/><use transform="matrix(0.05,0,0,0.05,65.9,0)" xlink:href="#aS"/><use transform="matrix(0.05,0,0,0.05,77.9,0)" xlink:href="#aX"/><use transform="matrix(0.05,0,0,0.05,89.9,0)" xlink:href="#aX"/></g><path d="M266 0h-40l-56-210L115 0H75L2-248h35L96-30l15-64 43-154h32l59 218 59-218h35" id="ba"/><g id="r"><use transform="matrix(0.05,0,0,0.05,0,0)" xlink:href="#ba"/><use transform="matrix(0.05,0,0,0.05,16.3,0)" xlink:href="#av"/><use transform="matrix(0.05,0,0,0.05,28.3,0)" xlink:href="#aO"/><use transform="matrix(0.05,0,0,0.05,33.3,0)" xlink:href="#aT"/><use transform="matrix(0.05,0,0,0.05,44.25,0)" xlink:href="#aO"/><use transform="matrix(0.05,0,0,0.05,49.25,0)" xlink:href="#aP"/><use transform="matrix(0.05,0,0,0.05,62.2,0)" xlink:href="#aQ"/></g><path d="M63-220v92h138v28H63V0H30v-248h175v28H63" id="bb"/><g id="s"><use transform="matrix(0.05,0,0,0.05,0,0)" xlink:href="#bb"/><use transform="matrix(0.05,0,0,0.05,10.950000000000001,0)" xlink:href="#aN"/><use transform="matrix(0.05,0,0,0.05,24.950000000000003,0)" xlink:href="#aZ"/></g><g id="t"><use transform="matrix(0.05,0,0,0.05,0,0)" xlink:href="#aU"/><use transform="matrix(0.05,0,0,0.05,12,0)" xlink:href="#aS"/><use transform="matrix(0.05,0,0,0.05,24,0)" xlink:href="#aT"/></g><path d="M212-179c-10-28-35-45-73-45-59 0-87 40-87 99 0 60 29 101 89 101 43 0 62-24 78-52l27 14C228-24 195 4 139 4 59 4 22-46 18-125c-6-104 99-153 187-111 19 9 31 26 39 46" id="bc"/><g id="u"><use transform="matrix(0.05,0,0,0.05,0,0)" xlink:href="#av"/><use transform="matrix(0.05,0,0,0.05,12,0)" xlink:href="#bc"/><use transform="matrix(0.05,0,0,0.05,24.950000000000003,0)" xlink:href="#aT"/><use transform="matrix(0.05,0,0,0.05,35.900000000000006,0)" xlink:href="#aO"/><use transform="matrix(0.05,0,0,0.05,40.900000000000006,0)" xlink:href="#aN"/><use transform="matrix(0.05,0,0,0.05,54.900000000000006,0)" xlink:href="#aP"/></g><g id="v"><use transform="matrix(0.05,0,0,0.05,0,0)" xlink:href="#aX"/><use transform="matrix(0.05,0,0,0.05,12,0)" xlink:href="#aS"/><use transform="matrix(0.05,0,0,0.05,24,0)" xlink:href="#aT"/></g><path d="M232-93c-1 65-40 97-104 97C67 4 28-28 28-90v-158h33c8 89-33 224 67 224 102 0 64-133 71-224h33v155" id="bd"/><g id="w"><use transform="matrix(0.05,0,0,0.05,0,0)" xlink:href="#bc"/><use transform="matrix(0.05,0,0,0.05,12.950000000000001,0)" xlink:href="#bd"/><use transform="matrix(0.05,0,0,0.05,25.900000000000002,0)" xlink:href="#aZ"/><use transform="matrix(0.05,0,0,0.05,38.85,0)" xlink:href="#aZ"/><use transform="matrix(0.05,0,0,0.05,51.800000000000004,0)" xlink:href="#aS"/><use transform="matrix(0.05,0,0,0.05,63.800000000000004,0)" xlink:href="#aP"/><use transform="matrix(0.05,0,0,0.05,76.75,0)" xlink:href="#aT"/></g><path d="M137-103V0h-34v-103L8-248h37l75 118 75-118h37" id="be"/><g id="x"><use transform="matrix(0.05,0,0,0.05,0,0)" xlink:href="#aY"/><use transform="matrix(0.05,0,0,0.05,12,0)" xlink:href="#aV"/><use transform="matrix(0.05,0,0,0.05,22,0)" xlink:href="#av"/><use transform="matrix(0.05,0,0,0.05,32.65,0)" xlink:href="#be"/><use transform="matrix(0.05,0,0,0.05,44.65,0)" xlink:href="#aS"/><use transform="matrix(0.05,0,0,0.05,56.650000000000006,0)" xlink:href="#aZ"/></g><g id="y"><use transform="matrix(0.05,0,0,0.05,0,0)" xlink:href="#aT"/><use transform="matrix(0.05,0,0,0.05,10.600000000000001,0)" xlink:href="#aN"/></g><g id="z"><use transform="matrix(0.05,0,0,0.05,0,0)" xlink:href="#av"/><use transform="matrix(0.05,0,0,0.05,12,0)" xlink:href="#bc"/><use transform="matrix(0.05,0,0,0.05,24.950000000000003,0)" xlink:href="#aT"/></g><path d="M197 0v-115H63V0H30v-248h33v105h134v-105h34V0h-34" id="bf"/><g id="A"><use transform="matrix(0.05,0,0,0.05,0,0)" xlink:href="#aX"/><use transform="matrix(0.05,0,0,0.05,12,0)" xlink:href="#bf"/><use transform="matrix(0.05,0,0,0.05,24.950000000000003,0)" xlink:href="#aN"/><use transform="matrix(0.05,0,0,0.05,38.95,0)" xlink:href="#ba"/></g><g id="B"><use transform="matrix(0.05,0,0,0.05,0,0)" xlink:href="#aX"/><use transform="matrix(0.05,0,0,0.05,12,0)" xlink:href="#aT"/><use transform="matrix(0.05,0,0,0.05,21.6,0)" xlink:href="#av"/><use transform="matrix(0.05,0,0,0.05,33.6,0)" xlink:href="#aZ"/><use transform="matrix(0.05,0,0,0.05,46.2,0)" xlink:href="#aT"/></g><g id="C"><use transform="matrix(0.05,0,0,0.05,0,0)" xlink:href="#aN"/><use transform="matrix(0.05,0,0,0.05,14,0)" xlink:href="#bb"/></g><g id="D"><use transform="matrix(0.05,0,0,0.05,0,0)" xlink:href="#bf"/><use transform="matrix(0.05,0,0,0.05,12.950000000000001,0)" xlink:href="#av"/><use transform="matrix(0.05,0,0,0.05,24.950000000000003,0)" xlink:href="#aP"/><use transform="matrix(0.05,0,0,0.05,37.900000000000006,0)" xlink:href="#aW"/></g><g id="E"><use transform="matrix(0.05,0,0,0.05,0,0)" xlink:href="#ba"/><use transform="matrix(0.05,0,0,0.05,16.95,0)" xlink:href="#aO"/><use transform="matrix(0.05,0,0,0.05,21.95,0)" xlink:href="#aP"/><use transform="matrix(0.05,0,0,0.05,34.9,0)" xlink:href="#aP"/><use transform="matrix(0.05,0,0,0.05,47.85,0)" xlink:href="#aS"/><use transform="matrix(0.05,0,0,0.05,59.85,0)" xlink:href="#aZ"/></g><g id="F"><use transform="matrix(0.05,0,0,0.05,0,0)" xlink:href="#bb"/><use transform="matrix(0.05,0,0,0.05,10.950000000000001,0)" xlink:href="#aO"/><use transform="matrix(0.05,0,0,0.05,15.950000000000001,0)" xlink:href="#aP"/><use transform="matrix(0.05,0,0,0.05,28.900000000000002,0)" xlink:href="#aO"/><use transform="matrix(0.05,0,0,0.05,33.900000000000006,0)" xlink:href="#aX"/><use transform="matrix(0.05,0,0,0.05,45.900000000000006,0)" xlink:href="#bf"/></g><g id="G"><use transform="matrix(0.05,0,0,0.05,0,0)" xlink:href="#aU"/><use transform="matrix(0.05,0,0,0.05,12,0)" xlink:href="#aS"/><use transform="matrix(0.05,0,0,0.05,24,0)" xlink:href="#aT"/><use transform="matrix(0.05,0,0,0.05,34.95,0)" xlink:href="#aT"/><use transform="matrix(0.05,0,0,0.05,45.900000000000006,0)" xlink:href="#aO"/><use transform="matrix(0.05,0,0,0.05,50.900000000000006,0)" xlink:href="#aP"/><use transform="matrix(0.05,0,0,0.05,63.85,0)" xlink:href="#aQ"/></g><g id="H"><use transform="matrix(0.05,0,0,0.05,0,0)" xlink:href="#aZ"/><use transform="matrix(0.05,0,0,0.05,12.950000000000001,0)" xlink:href="#aN"/><use transform="matrix(0.05,0,0,0.05,26.950000000000003,0)" xlink:href="#bd"/><use transform="matrix(0.05,0,0,0.05,39.900000000000006,0)" xlink:href="#aP"/><use transform="matrix(0.05,0,0,0.05,52.85,0)" xlink:href="#aW"/></g><path d="M209 0H11v-25l151-195H24v-28h176v25L50-27h159V0" id="bg"/><g id="I"><use transform="matrix(0.05,0,0,0.05,0,0)" xlink:href="#aO"/><use transform="matrix(0.05,0,0,0.05,5,0)" xlink:href="#aP"/><use transform="matrix(0.05,0,0,0.05,17.950000000000003,0)" xlink:href="#aO"/><use transform="matrix(0.05,0,0,0.05,22.950000000000003,0)" xlink:href="#aT"/><use transform="matrix(0.05,0,0,0.05,33.900000000000006,0)" xlink:href="#aO"/><use transform="matrix(0.05,0,0,0.05,38.900000000000006,0)" xlink:href="#av"/><use transform="matrix(0.05,0,0,0.05,50.900000000000006,0)" xlink:href="#aV"/><use transform="matrix(0.05,0,0,0.05,60.900000000000006,0)" xlink:href="#aO"/><use transform="matrix(0.05,0,0,0.05,65.9,0)" xlink:href="#bg"/><use transform="matrix(0.05,0,0,0.05,76.85000000000001,0)" xlink:href="#aS"/></g><g id="J"><use transform="matrix(0.05,0,0,0.05,0,0)" xlink:href="#aP"/><use transform="matrix(0.05,0,0,0.05,12.950000000000001,0)" xlink:href="#aS"/><use transform="matrix(0.05,0,0,0.05,24.950000000000003,0)" xlink:href="#ba"/></g><g id="K"><use transform="matrix(0.05,0,0,0.05,0,0)" xlink:href="#aY"/><use transform="matrix(0.05,0,0,0.05,12,0)" xlink:href="#aN"/><use transform="matrix(0.05,0,0,0.05,26,0)" xlink:href="#aX"/><use transform="matrix(0.05,0,0,0.05,38,0)" xlink:href="#aT"/></g><g id="L"><use transform="matrix(0.05,0,0,0.05,0,0)" xlink:href="#bf"/><use transform="matrix(0.05,0,0,0.05,12.950000000000001,0)" xlink:href="#av"/><use transform="matrix(0.05,0,0,0.05,24.950000000000003,0)" xlink:href="#aP"/><use transform="matrix(0.05,0,0,0.05,37.900000000000006,0)" xlink:href="#aW"/></g><g id="M"><use transform="matrix(0.05,0,0,0.05,0,0)" xlink:href="#bc"/><use transform="matrix(0.05,0,0,0.05,12.950000000000001,0)" xlink:href="#aV"/><use transform="matrix(0.05,0,0,0.05,22.950000000000003,0)" xlink:href="#aS"/><use transform="matrix(0.05,0,0,0.05,34.95,0)" xlink:href="#av"/><use transform="matrix(0.05,0,0,0.05,46.95,0)" xlink:href="#aP"/><use transform="matrix(0.05,0,0,0.05,59.900000000000006,0)" xlink:href="#bd"/><use transform="matrix(0.05,0,0,0.05,72.85000000000001,0)" xlink:href="#aY"/></g><g id="N"><use transform="matrix(0.05,0,0,0.05,0,0)" xlink:href="#bc"/><use transform="matrix(0.05,0,0,0.05,12.950000000000001,0)" xlink:href="#aD"/><use transform="matrix(0.05,0,0,0.05,22.950000000000003,0)" xlink:href="#aA"/></g><path d="M84 4C-5 8 30-112 23-190h32v120c0 31 7 50 39 49 72-2 45-101 50-169h31l1 190h-30c-1-10 1-25-2-33-11 22-28 36-60 37" id="bh"/><g id="O"><use transform="matrix(0.05,0,0,0.05,0,0)" xlink:href="#aw"/><use transform="matrix(0.05,0,0,0.05,9,0)" xlink:href="#az"/><use transform="matrix(0.05,0,0,0.05,19,0)" xlink:href="#aA"/><use transform="matrix(0.05,0,0,0.05,29,0)" xlink:href="#ax"/><use transform="matrix(0.05,0,0,0.05,34,0)" xlink:href="#ay"/><use transform="matrix(0.05,0,0,0.05,37.95,0)" xlink:href="#aA"/><use transform="matrix(0.05,0,0,0.05,47.95,0)" xlink:href="#bh"/><use transform="matrix(0.05,0,0,0.05,57.95,0)" xlink:href="#aI"/></g><path d="M210-169c-67 3-38 105-44 169h-31v-121c0-29-5-50-35-48C34-165 62-65 56 0H25l-1-190h30c1 10-1 24 2 32 10-44 99-50 107 0 11-21 27-35 58-36 85-2 47 119 55 194h-31v-121c0-29-5-49-35-48" id="bi"/><path d="M103-251c84 0 111 97 45 133-19 10-37 24-39 52H78c0-63 77-55 77-114 0-30-21-42-52-43-32 0-53 17-56 46l-32-2c7-45 34-72 88-72zM77 0v-35h34V0H77" id="bj"/><g id="P"><use transform="matrix(0.05,0,0,0.05,0,0)" xlink:href="#aH"/><use transform="matrix(0.05,0,0,0.05,10,0)" xlink:href="#aD"/><use transform="matrix(0.05,0,0,0.05,20,0)" xlink:href="#bi"/><use transform="matrix(0.05,0,0,0.05,34.95,0)" xlink:href="#aI"/><use transform="matrix(0.05,0,0,0.05,44.95,0)" xlink:href="#bj"/></g><g id="Q"><use transform="matrix(0.05,0,0,0.05,0,0)" xlink:href="#be"/><use transform="matrix(0.05,0,0,0.05,10.35,0)" xlink:href="#aI"/><use transform="matrix(0.05,0,0,0.05,20.35,0)" xlink:href="#aB"/></g><g id="R"><use transform="matrix(0.05,0,0,0.05,0,0)" xlink:href="#aP"/><use transform="matrix(0.05,0,0,0.05,12.950000000000001,0)" xlink:href="#az"/></g><g id="S"><use transform="matrix(0.05,0,0,0.05,0,0)" xlink:href="#bc"/><use transform="matrix(0.05,0,0,0.05,12.950000000000001,0)" xlink:href="#aF"/><use transform="matrix(0.05,0,0,0.05,16.900000000000002,0)" xlink:href="#ay"/><use transform="matrix(0.05,0,0,0.05,20.85,0)" xlink:href="#aI"/><use transform="matrix(0.05,0,0,0.05,30.85,0)" xlink:href="#aA"/><use transform="matrix(0.05,0,0,0.05,40.85,0)" xlink:href="#ax"/><use transform="matrix(0.05,0,0,0.05,45.85,0)" xlink:href="#av"/><use transform="matrix(0.05,0,0,0.05,57.85,0)" xlink:href="#aw"/><use transform="matrix(0.05,0,0,0.05,66.85,0)" xlink:href="#ax"/><use transform="matrix(0.05,0,0,0.05,71.85,0)" xlink:href="#ay"/><use transform="matrix(0.05,0,0,0.05,75.8,0)" xlink:href="#az"/><use transform="matrix(0.05,0,0,0.05,85.8,0)" xlink:href="#aA"/></g><use transform="matrix(0.05,0,0,0.05,0,0)" xlink:href="#au" id="T"/><g id="U"><use transform="matrix(0.05,0,0,0.05,0,0)" xlink:href="#aT"/><use transform="matrix(0.05,0,0,0.05,10.3,0)" xlink:href="#ay"/><use transform="matrix(0.05,0,0,0.05,14.25,0)" xlink:href="#bi"/><use transform="matrix(0.05,0,0,0.05,29.200000000000003,0)" xlink:href="#aI"/><use transform="matrix(0.05,0,0,0.05,39.2,0)" xlink:href="#az"/><use transform="matrix(0.05,0,0,0.05,49.2,0)" xlink:href="#bh"/><use transform="matrix(0.05,0,0,0.05,59.2,0)" xlink:href="#ax"/></g><path d="M16-82v-28h88v28H16" id="bk"/><g id="V"><use transform="matrix(0.05,0,0,0.05,0,0)" xlink:href="#av"/><use transform="matrix(0.05,0,0,0.05,12,0)" xlink:href="#aF"/><use transform="matrix(0.05,0,0,0.05,15.949999999999998,0)" xlink:href="#aF"/><use transform="matrix(0.05,0,0,0.05,19.9,0)" xlink:href="#bk"/><use transform="matrix(0.05,0,0,0.05,25.849999999999994,0)" xlink:href="#aO"/><use transform="matrix(0.05,0,0,0.05,30.849999999999994,0)" xlink:href="#aA"/></g><g id="W"><use transform="matrix(0.05,0,0,0.05,0,0)" xlink:href="#aG"/><use transform="matrix(0.05,0,0,0.05,5.95,0)" xlink:href="#bh"/><use transform="matrix(0.05,0,0,0.05,15.949999999999998,0)" xlink:href="#aA"/></g><g id="X"><use transform="matrix(0.05,0,0,0.05,0,0)" xlink:href="#az"/><use transform="matrix(0.05,0,0,0.05,10,0)" xlink:href="#bh"/><use transform="matrix(0.05,0,0,0.05,20,0)" xlink:href="#ax"/><use transform="matrix(0.05,0,0,0.05,25,0)" xlink:href="#bj"/></g><g id="Y"><use transform="matrix(0.05,0,0,0.05,0,0)" xlink:href="#au"/><use transform="matrix(0.05,0,0,0.05,7,0)" xlink:href="#au"/></g><g id="Z"><use transform="matrix(0.05,0,0,0.05,0,0)" xlink:href="#au"/><use transform="matrix(0.05,0,0,0.05,7,0)" xlink:href="#au"/></g><path d="M179-190L93 31C79 59 56 82 12 73V49c39 6 53-20 64-50L1-190h34L92-34l54-156h33" id="bl"/><g id="aa"><use transform="matrix(0.05,0,0,0.05,0,0)" xlink:href="#aN"/><use transform="matrix(0.05,0,0,0.05,14,0)" xlink:href="#aA"/><use transform="matrix(0.05,0,0,0.05,24,0)" xlink:href="#aF"/><use transform="matrix(0.05,0,0,0.05,27.950000000000003,0)" xlink:href="#bl"/></g><use transform="matrix(0.05,0,0,0.05,0,0)" xlink:href="#aD" id="ab"/><g id="ac"><use transform="matrix(0.05,0,0,0.05,0,0)" xlink:href="#aU"/><use transform="matrix(0.05,0,0,0.05,12,0)" xlink:href="#aS"/><use transform="matrix(0.05,0,0,0.05,24,0)" xlink:href="#aT"/><use transform="matrix(0.05,0,0,0.05,33.6,0)" xlink:href="#av"/><use transform="matrix(0.05,0,0,0.05,45.6,0)" xlink:href="#bc"/><use transform="matrix(0.05,0,0,0.05,58.550000000000004,0)" xlink:href="#aT"/><use transform="matrix(0.05,0,0,0.05,69.5,0)" xlink:href="#aO"/><use transform="matrix(0.05,0,0,0.05,74.5,0)" xlink:href="#aN"/><use transform="matrix(0.05,0,0,0.05,88.5,0)" xlink:href="#aP"/></g><g id="ad"><use transform="matrix(0.05,0,0,0.05,0,0)" xlink:href="#ax"/><use transform="matrix(0.05,0,0,0.05,5,0)" xlink:href="#aC"/><use transform="matrix(0.05,0,0,0.05,15,0)" xlink:href="#aI"/></g><path d="M141 0L90-78 38 0H4l68-98-65-92h35l48 74 47-74h35l-64 92 68 98h-35" id="bm"/><g id="ae"><use transform="matrix(0.05,0,0,0.05,0,0)" xlink:href="#aA"/><use transform="matrix(0.05,0,0,0.05,10,0)" xlink:href="#aI"/><use transform="matrix(0.05,0,0,0.05,20,0)" xlink:href="#bm"/><use transform="matrix(0.05,0,0,0.05,29,0)" xlink:href="#ax"/></g><path d="M33 0v-38h34V0H33" id="bn"/><g id="af"><use transform="matrix(0.05,0,0,0.05,0,0)" xlink:href="#aB"/><use transform="matrix(0.05,0,0,0.05,9,0)" xlink:href="#ax"/><use transform="matrix(0.05,0,0,0.05,14,0)" xlink:href="#aD"/><use transform="matrix(0.05,0,0,0.05,24,0)" xlink:href="#ax"/><use transform="matrix(0.05,0,0,0.05,29,0)" xlink:href="#aI"/><use transform="matrix(0.05,0,0,0.05,39,0)" xlink:href="#bn"/></g><g id="ag"><use transform="matrix(0.05,0,0,0.05,0,0)" xlink:href="#aO"/><use transform="matrix(0.05,0,0,0.05,5,0)" xlink:href="#aB"/></g><path d="M115-194c53 0 69 39 70 98 0 66-23 100-70 100C84 3 66-7 56-30L54 0H23l1-261h32v101c10-23 28-34 59-34zm-8 174c40 0 45-34 45-75 0-40-5-75-45-74-42 0-51 32-51 76 0 43 10 73 51 73" id="bo"/><g id="ah"><use transform="matrix(0.05,0,0,0.05,0,0)" xlink:href="#bo"/><use transform="matrix(0.05,0,0,0.05,10,0)" xlink:href="#aI"/><use transform="matrix(0.05,0,0,0.05,20,0)" xlink:href="#ax"/><use transform="matrix(0.05,0,0,0.05,25,0)" xlink:href="#ax"/><use transform="matrix(0.05,0,0,0.05,30,0)" xlink:href="#ay"/><use transform="matrix(0.05,0,0,0.05,33.95,0)" xlink:href="#aA"/><use transform="matrix(0.05,0,0,0.05,43.95,0)" xlink:href="#aH"/></g><g id="ai"><use transform="matrix(0.05,0,0,0.05,0,0)" xlink:href="#aG"/><use transform="matrix(0.05,0,0,0.05,5.95,0)" xlink:href="#az"/><use transform="matrix(0.05,0,0,0.05,15.949999999999998,0)" xlink:href="#bh"/><use transform="matrix(0.05,0,0,0.05,25.950000000000003,0)" xlink:href="#aA"/><use transform="matrix(0.05,0,0,0.05,35.95,0)" xlink:href="#aJ"/></g><path d="M108 0H70L1-190h34L89-25l56-165h34" id="bp"/><g id="aj"><use transform="matrix(0.05,0,0,0.05,0,0)" xlink:href="#az"/><use transform="matrix(0.05,0,0,0.05,10,0)" xlink:href="#bp"/><use transform="matrix(0.05,0,0,0.05,19,0)" xlink:href="#aI"/><use transform="matrix(0.05,0,0,0.05,29,0)" xlink:href="#aG"/><use transform="matrix(0.05,0,0,0.05,34.95,0)" xlink:href="#bj"/></g><g id="ak"><use transform="matrix(0.05,0,0,0.05,0,0)" xlink:href="#aC"/><use transform="matrix(0.05,0,0,0.05,10,0)" xlink:href="#aD"/><use transform="matrix(0.05,0,0,0.05,20,0)" xlink:href="#aA"/><use transform="matrix(0.05,0,0,0.05,30,0)" xlink:href="#aJ"/></g><path d="M115-194c55 1 70 41 70 98S169 2 115 4C84 4 66-9 55-30l1 105H24l-1-265h31l2 30c10-21 28-34 59-34zm-8 174c40 0 45-34 45-75s-6-73-45-74c-42 0-51 32-51 76 0 43 10 73 51 73" id="bq"/><g id="al"><use transform="matrix(0.05,0,0,0.05,0,0)" xlink:href="#aH"/><use transform="matrix(0.05,0,0,0.05,10,0)" xlink:href="#aD"/><use transform="matrix(0.05,0,0,0.05,20,0)" xlink:href="#bi"/><use transform="matrix(0.05,0,0,0.05,34.95,0)" xlink:href="#aI"/><use transform="matrix(0.05,0,0,0.05,44.95,0)" xlink:href="#bq"/><use transform="matrix(0.05,0,0,0.05,54.95,0)" xlink:href="#aF"/><use transform="matrix(0.05,0,0,0.05,58.900000000000006,0)" xlink:href="#aD"/><use transform="matrix(0.05,0,0,0.05,68.9,0)" xlink:href="#bl"/></g><g id="am"><use transform="matrix(0.05,0,0,0.05,0,0)" xlink:href="#av"/><use transform="matrix(0.05,0,0,0.05,12,0)" xlink:href="#aG"/><use transform="matrix(0.05,0,0,0.05,17.95,0)" xlink:href="#aI"/></g><g id="an"><use transform="matrix(0.05,0,0,0.05,0,0)" xlink:href="#ax"/><use transform="matrix(0.05,0,0,0.05,5,0)" xlink:href="#aC"/><use transform="matrix(0.05,0,0,0.05,15,0)" xlink:href="#aI"/><use transform="matrix(0.05,0,0,0.05,25,0)" xlink:href="#aG"/><use transform="matrix(0.05,0,0,0.05,30.950000000000003,0)" xlink:href="#aI"/></g><g id="ao"><use transform="matrix(0.05,0,0,0.05,0,0)" xlink:href="#aB"/><use transform="matrix(0.05,0,0,0.05,9,0)" xlink:href="#ax"/><use transform="matrix(0.05,0,0,0.05,14,0)" xlink:href="#ay"/><use transform="matrix(0.05,0,0,0.05,17.95,0)" xlink:href="#aF"/><use transform="matrix(0.05,0,0,0.05,21.9,0)" xlink:href="#aF"/></g><g id="ap"><use transform="matrix(0.05,0,0,0.05,0,0)" xlink:href="#bq"/><use transform="matrix(0.05,0,0,0.05,10,0)" xlink:href="#az"/><use transform="matrix(0.05,0,0,0.05,20,0)" xlink:href="#ax"/><use transform="matrix(0.05,0,0,0.05,25,0)" xlink:href="#aB"/></g><path d="M101-234c-31-9-42 10-38 44h38v23H63V0H32v-167H5v-23h27c-7-52 17-82 69-68v24" id="br"/><g id="aq"><use transform="matrix(0.05,0,0,0.05,0,0)" xlink:href="#aF"/><use transform="matrix(0.05,0,0,0.05,3.95,0)" xlink:href="#aI"/><use transform="matrix(0.05,0,0,0.05,13.949999999999998,0)" xlink:href="#br"/><use transform="matrix(0.05,0,0,0.05,18.95,0)" xlink:href="#ax"/></g><g id="ar"><use transform="matrix(0.05,0,0,0.05,0,0)" xlink:href="#ax"/><use transform="matrix(0.05,0,0,0.05,5,0)" xlink:href="#az"/></g><g id="as"><use transform="matrix(0.05,0,0,0.05,0,0)" xlink:href="#aJ"/><use transform="matrix(0.05,0,0,0.05,10,0)" xlink:href="#ay"/><use transform="matrix(0.05,0,0,0.05,13.949999999999998,0)" xlink:href="#aB"/><use transform="matrix(0.05,0,0,0.05,22.95,0)" xlink:href="#ax"/><use transform="matrix(0.05,0,0,0.05,27.950000000000003,0)" xlink:href="#aG"/><use transform="matrix(0.05,0,0,0.05,33.9,0)" xlink:href="#ay"/><use transform="matrix(0.05,0,0,0.05,37.85,0)" xlink:href="#bo"/><use transform="matrix(0.05,0,0,0.05,47.85,0)" xlink:href="#bh"/><use transform="matrix(0.05,0,0,0.05,57.85,0)" xlink:href="#ax"/><use transform="matrix(0.05,0,0,0.05,62.85,0)" xlink:href="#aI"/></g><use transform="matrix(0.05,0,0,0.05,0,0)" xlink:href="#bj" id="at"/></defs></g></svg>